{"asset":{"version":"2.0","generator":"Blockbench 4.12.2 glTF exporter"},"scenes":[{"nodes":[11],"name":"blockbench_export"}],"scene":0,"nodes":[{"translation":[2.135044278125301e-18,0.03125,-1.3344026738283132e-19],"name":"cylinder","mesh":0},{"name":"stem","mesh":1},{"rotation":[0,-1,0,6.123233995736766e-17],"translation":[0.00625,0.05625000000000005,-0.003124999999999987],"name":"plane","mesh":2},{"rotation":[-8.000390764101651e-17,-0.9238795325112867,-8.000390764101651e-17,-0.3826834323650898],"translation":[0.00625,0.05625000000000005,-0.003124999999999987],"name":"plane","mesh":3},{"rotation":[4.5081503432518803e-17,0.3826834323650896,1.0883637699895603e-16,0.9238795325112868],"translation":[0.00625,0.05625000000000005,-0.003124999999999987],"name":"plane","mesh":4},{"rotation":[8.329975663228294e-17,0.7071067811865475,8.329975663228293e-17,0.7071067811865476],"translation":[0.00625,0.05625000000000005,-0.003124999999999987],"name":"plane","mesh":5},{"translation":[0.00625,0.05625000000000005,-0.003124999999999987],"name":"plane","mesh":6},{"rotation":[0,-0.3826834323650896,0,0.9238795325112868],"translation":[0.00625,0.05625000000000005,-0.003124999999999987],"name":"plane","mesh":7},{"rotation":[0,-0.7071067811865475,0,0.7071067811865476],"translation":[0.00625,0.05625000000000005,-0.003124999999999987],"name":"plane","mesh":8},{"rotation":[3.313870358775352e-17,-0.9238795325112867,3.313870358775352e-17,0.3826834323650898],"translation":[0.00625,0.05625000000000005,-0.003124999999999987],"name":"plane","mesh":9},{"translation":[0,0.09375000000000003,0],"name":"leaf","children":[1,2,3,4,5,6,7,8,9]},{"children":[0,10]}],"bufferViews":[{"buffer":0,"byteOffset":0,"byteLength":4320,"target":34962,"byteStride":12},{"buffer":0,"byteOffset":4320,"byteLength":4320,"target":34962,"byteStride":12},{"buffer":0,"byteOffset":8640,"byteLength":2880,"target":34962,"byteStride":8},{"buffer":0,"byteOffset":11520,"byteLength":1008,"target":34963},{"buffer":0,"byteOffset":12528,"byteLength":1584,"target":34962,"byteStride":12},{"buffer":0,"byteOffset":14112,"byteLength":1584,"target":34962,"byteStride":12},{"buffer":0,"byteOffset":15696,"byteLength":1056,"target":34962,"byteStride":8},{"buffer":0,"byteOffset":16752,"byteLength":360,"target":34963},{"buffer":0,"byteOffset":17112,"byteLength":240,"target":34962,"byteStride":12},{"buffer":0,"byteOffset":17352,"byteLength":240,"target":34962,"byteStride":12},{"buffer":0,"byteOffset":17592,"byteLength":160,"target":34962,"byteStride":8},{"buffer":0,"byteOffset":17752,"byteLength":60,"target":34963},{"buffer":0,"byteOffset":17812,"byteLength":240,"target":34962,"byteStride":12},{"buffer":0,"byteOffset":18052,"byteLength":240,"target":34962,"byteStride":12},{"buffer":0,"byteOffset":18292,"byteLength":160,"target":34962,"byteStride":8},{"buffer":0,"byteOffset":18452,"byteLength":60,"target":34963},{"buffer":0,"byteOffset":18512,"byteLength":240,"target":34962,"byteStride":12},{"buffer":0,"byteOffset":18752,"byteLength":240,"target":34962,"byteStride":12},{"buffer":0,"byteOffset":18992,"byteLength":160,"target":34962,"byteStride":8},{"buffer":0,"byteOffset":19152,"byteLength":60,"target":34963},{"buffer":0,"byteOffset":19212,"byteLength":240,"target":34962,"byteStride":12},{"buffer":0,"byteOffset":19452,"byteLength":240,"target":34962,"byteStride":12},{"buffer":0,"byteOffset":19692,"byteLength":160,"target":34962,"byteStride":8},{"buffer":0,"byteOffset":19852,"byteLength":60,"target":34963},{"buffer":0,"byteOffset":19912,"byteLength":240,"target":34962,"byteStride":12},{"buffer":0,"byteOffset":20152,"byteLength":240,"target":34962,"byteStride":12},{"buffer":0,"byteOffset":20392,"byteLength":160,"target":34962,"byteStride":8},{"buffer":0,"byteOffset":20552,"byteLength":60,"target":34963},{"buffer":0,"byteOffset":20612,"byteLength":240,"target":34962,"byteStride":12},{"buffer":0,"byteOffset":20852,"byteLength":240,"target":34962,"byteStride":12},{"buffer":0,"byteOffset":21092,"byteLength":160,"target":34962,"byteStride":8},{"buffer":0,"byteOffset":21252,"byteLength":60,"target":34963},{"buffer":0,"byteOffset":21312,"byteLength":240,"target":34962,"byteStride":12},{"buffer":0,"byteOffset":21552,"byteLength":240,"target":34962,"byteStride":12},{"buffer":0,"byteOffset":21792,"byteLength":160,"target":34962,"byteStride":8},{"buffer":0,"byteOffset":21952,"byteLength":60,"target":34963},{"buffer":0,"byteOffset":22012,"byteLength":240,"target":34962,"byteStride":12},{"buffer":0,"byteOffset":22252,"byteLength":240,"target":34962,"byteStride":12},{"buffer":0,"byteOffset":22492,"byteLength":160,"target":34962,"byteStride":8},{"buffer":0,"byteOffset":22652,"byteLength":60,"target":34963}],"buffers":[{"byteLength":22712,"uri":"data:application/octet-stream;base64,"}],"accessors":[{"bufferView":0,"componentType":5126,"count":360,"max":[0.03281249850988388,0.03125,0.03281249850988388],"min":[-0.03281249850988388,-0.03125,-0.03281249850988388],"type":"VEC3"},{"bufferView":1,"componentType":5126,"count":360,"max":[1,1,1],"min":[-1,-1,-1],"type":"VEC3"},{"bufferView":2,"componentType":5126,"count":360,"max":[1.0000499486923218,0.9871031045913696],"min":[0.38421738147735596,0],"type":"VEC2"},{"bufferView":3,"componentType":5123,"count":504,"max":[359],"min":[0],"type":"SCALAR"},{"bufferView":4,"componentType":5126,"count":132,"max":[0.008295939303934574,0.05624999850988388,0.015625],"min":[-0.012983439490199089,-0.0625,-0.00937500037252903],"type":"VEC3"},{"bufferView":5,"componentType":5126,"count":132,"max":[0.8922188878059387,1,1],"min":[-0.8922188878059387,-1,-1],"type":"VEC3"},{"bufferView":6,"componentType":5126,"count":132,"max":[0.23863539099693298,1.004500389099121],"min":[0,0],"type":"VEC2"},{"bufferView":7,"componentType":5123,"count":180,"max":[131],"min":[0],"type":"SCALAR"},{"bufferView":8,"componentType":5126,"count":20,"max":[0.02812499925494194,0.04374999925494194,-1.0408340855860843e-17],"min":[-0.02812499925494194,-0.05624999850988388,-0.10625000298023224],"type":"VEC3"},{"bufferView":9,"componentType":5126,"count":20,"max":[0,0.9743912220001221,0.9629639983177185],"min":[0,0.21369688212871552,-0.976900041103363],"type":"VEC3"},{"bufferView":10,"componentType":5126,"count":20,"max":[1,0.987500011920929],"min":[0.5,0.5],"type":"VEC2"},{"bufferView":11,"componentType":5123,"count":30,"max":[19],"min":[0],"type":"SCALAR"},{"bufferView":12,"componentType":5126,"count":20,"max":[0.02812499925494194,0.04374999925494194,-1.0408340855860843e-17],"min":[-0.02812499925494194,-0.05624999850988388,-0.10625000298023224],"type":"VEC3"},{"bufferView":13,"componentType":5126,"count":20,"max":[0,0.9743912220001221,0.9629639983177185],"min":[0,0.21369688212871552,-0.976900041103363],"type":"VEC3"},{"bufferView":14,"componentType":5126,"count":20,"max":[1,0.987500011920929],"min":[0.5,0.5],"type":"VEC2"},{"bufferView":15,"componentType":5123,"count":30,"max":[19],"min":[0],"type":"SCALAR"},{"bufferView":16,"componentType":5126,"count":20,"max":[0.02812499925494194,0.04374999925494194,-1.0408340855860843e-17],"min":[-0.03475412726402283,-0.05624999850988388,-0.10183057934045792],"type":"VEC3"},{"bufferView":17,"componentType":5126,"count":20,"max":[0,0.9743912220001221,0.9629639983177185],"min":[0,0.25429999828338623,-0.967125415802002],"type":"VEC3"},{"bufferView":18,"componentType":5126,"count":20,"max":[1,0.987500011920929],"min":[0.5,0.5],"type":"VEC2"},{"bufferView":19,"componentType":5123,"count":30,"max":[19],"min":[0],"type":"SCALAR"},{"bufferView":20,"componentType":5126,"count":20,"max":[0.02812499925494194,0.04374999925494194,-1.0408340855860843e-17],"min":[-0.02812499925494194,-0.05624999850988388,-0.10625000298023224],"type":"VEC3"},{"bufferView":21,"componentType":5126,"count":20,"max":[0,0.9743912220001221,0.9629639983177185],"min":[0,0.21369688212871552,-0.976900041103363],"type":"VEC3"},{"bufferView":22,"componentType":5126,"count":20,"max":[1,0.987500011920929],"min":[0.5,0.5],"type":"VEC2"},{"bufferView":23,"componentType":5123,"count":30,"max":[19],"min":[0],"type":"SCALAR"},{"bufferView":24,"componentType":5126,"count":20,"max":[0.02812499925494194,0.04374999925494194,-1.0408340855860843e-17],"min":[-0.02812499925494194,-0.03437500074505806,-0.10625000298023224],"type":"VEC3"},{"bufferView":25,"componentType":5126,"count":20,"max":[0,0.9743912220001221,0.9629639983177185],"min":[0,0.26962992548942566,-0.9320046901702881],"type":"VEC3"},{"bufferView":26,"componentType":5126,"count":20,"max":[1,0.987500011920929],"min":[0.5,0.5],"type":"VEC2"},{"bufferView":27,"componentType":5123,"count":30,"max":[19],"min":[0],"type":"SCALAR"},{"bufferView":28,"componentType":5126,"count":20,"max":[0.02812499925494194,0.04374999925494194,-1.0408340855860843e-17],"min":[-0.02812499925494194,-0.078125,-0.10625000298023224],"type":"VEC3"},{"bufferView":29,"componentType":5126,"count":20,"max":[0,0.9743912220001221,0.9629639983177185],"min":[0,0.1504420042037964,-0.9886188507080078],"type":"VEC3"},{"bufferView":30,"componentType":5126,"count":20,"max":[1,0.987500011920929],"min":[0.5,0.5],"type":"VEC2"},{"bufferView":31,"componentType":5123,"count":30,"max":[19],"min":[0],"type":"SCALAR"},{"bufferView":32,"componentType":5126,"count":20,"max":[0.02812499925494194,0.04374999925494194,-1.0408340855860843e-17],"min":[-0.02812499925494194,-0.07500000298023224,-0.10625000298023224],"type":"VEC3"},{"bufferView":33,"componentType":5126,"count":20,"max":[0,0.9743912220001221,0.9629639983177185],"min":[-0.279553085565567,0.26962992548942566,-0.9185315370559692],"type":"VEC3"},{"bufferView":34,"componentType":5126,"count":20,"max":[1,0.987500011920929],"min":[0.5,0.5],"type":"VEC2"},{"bufferView":35,"componentType":5123,"count":30,"max":[19],"min":[0],"type":"SCALAR"},{"bufferView":36,"componentType":5126,"count":20,"max":[0.02812499925494194,0.04374999925494194,-1.0408340855860843e-17],"min":[-0.02812499925494194,-0.07187499850988388,-0.10625000298023224],"type":"VEC3"},{"bufferView":37,"componentType":5126,"count":20,"max":[0,0.9743912220001221,0.9629639983177185],"min":[-0.12038585543632507,0.24077171087265015,-0.9630868434906006],"type":"VEC3"},{"bufferView":38,"componentType":5126,"count":20,"max":[1,0.987500011920929],"min":[0.5,0.5],"type":"VEC2"},{"bufferView":39,"componentType":5123,"count":30,"max":[19],"min":[0],"type":"SCALAR"}],"materials":[{"pbrMetallicRoughness":{"metallicFactor":0,"roughnessFactor":1,"baseColorTexture":{"index":0}},"alphaMode":"MASK","alphaCutoff":0.05,"doubleSided":true}],"textures":[{"sampler":0,"source":0,"name":"t_plant.png"}],"samplers":[{"magFilter":9728,"minFilter":9728,"wrapS":33071,"wrapT":33071}],"images":[{"mimeType":"image/png","uri":"data:image/png;base64,"}],"meshes":[{"primitives":[{"mode":4,"attributes":{"POSITION":0,"NORMAL":1,"TEXCOORD_0":2},"indices":3,"material":0}]},{"primitives":[{"mode":4,"attributes":{"POSITION":4,"NORMAL":5,"TEXCOORD_0":6},"indices":7,"material":0}]},{"primitives":[{"mode":4,"attributes":{"POSITION":8,"NORMAL":9,"TEXCOORD_0":10},"indices":11,"material":0}]},{"primitives":[{"mode":4,"attributes":{"POSITION":12,"NORMAL":13,"TEXCOORD_0":14},"indices":15,"material":0}]},{"primitives":[{"mode":4,"attributes":{"POSITION":16,"NORMAL":17,"TEXCOORD_0":18},"indices":19,"material":0}]},{"primitives":[{"mode":4,"attributes":{"POSITION":20,"NORMAL":21,"TEXCOORD_0":22},"indices":23,"material":0}]},{"primitives":[{"mode":4,"attributes":{"POSITION":24,"NORMAL":25,"TEXCOORD_0":26},"indices":27,"material":0}]},{"primitives":[{"mode":4,"attributes":{"POSITION":28,"NORMAL":29,"TEXCOORD_0":30},"indices":31,"material":0}]},{"primitives":[{"mode":4,"attributes":{"POSITION":32,"NORMAL":33,"TEXCOORD_0":34},"indices":35,"material":0}]},{"primitives":[{"mode":4,"attributes":{"POSITION":36,"NORMAL":37,"TEXCOORD_0":38},"indices":39,"material":0}]}]}