{"asset":{"version":"2.0","generator":"Blockbench 4.11.2 glTF exporter"},"scenes":[{"nodes":[5],"name":"blockbench_export"}],"scene":0,"nodes":[{"translation":[0,0,-0.16250000000000003],"name":"firing_loc"},{"translation":[0,0.02500000000000001,0.018750000000000003],"name":"cuboid","mesh":0},{"rotation":[0.7071067811865475,0,0,0.7071067811865476],"translation":[1.5419764230904951e-18,0.03750000000000005,-0.10624999999999998],"name":"cylinder","mesh":1},{"translation":[0,-0.025,0.018750000000000003],"name":"cuboid","mesh":2},{"name":"flashlight","children":[0,1,2,3]},{"children":[4]}],"bufferViews":[{"buffer":0,"byteOffset":0,"byteLength":480,"target":34962,"byteStride":12},{"buffer":0,"byteOffset":480,"byteLength":480,"target":34962,"byteStride":12},{"buffer":0,"byteOffset":960,"byteLength":320,"target":34962,"byteStride":8},{"buffer":0,"byteOffset":1280,"byteLength":120,"target":34963},{"buffer":0,"byteOffset":1400,"byteLength":960,"target":34962,"byteStride":12},{"buffer":0,"byteOffset":2360,"byteLength":960,"target":34962,"byteStride":12},{"buffer":0,"byteOffset":3320,"byteLength":640,"target":34962,"byteStride":8},{"buffer":0,"byteOffset":3960,"byteLength":192,"target":34963},{"buffer":0,"byteOffset":4152,"byteLength":288,"target":34962,"byteStride":12},{"buffer":0,"byteOffset":4440,"byteLength":288,"target":34962,"byteStride":12},{"buffer":0,"byteOffset":4728,"byteLength":192,"target":34962,"byteStride":8},{"buffer":0,"byteOffset":4920,"byteLength":72,"target":34963}],"buffers":[{"byteLength":4992,"uri":"data:application/octet-stream;base64,"}],"accessors":[{"bufferView":0,"componentType":5126,"count":40,"max":[0.02500000037252903,0.03750000149011612,0.10000000149011612],"min":[-0.02500000037252903,-0.012500000186264515,-0.10000000149011612],"type":"VEC3"},{"bufferView":1,"componentType":5126,"count":40,"max":[1,1,1],"min":[-1,-1,-1],"type":"VEC3"},{"bufferView":2,"componentType":5126,"count":40,"max":[1,1.21875],"min":[0.05937499925494194,0.49687498807907104],"type":"VEC2"},{"bufferView":3,"componentType":5123,"count":60,"max":[39],"min":[0],"type":"SCALAR"},{"bufferView":4,"componentType":5126,"count":80,"max":[0.05000000074505806,0.02500000037252903,0.05000000074505806],"min":[-0.05000000074505806,-0.02500000037252903,-0.05000000074505806],"type":"VEC3"},{"bufferView":5,"componentType":5126,"count":80,"max":[1,1,1],"min":[-1,-1,-1],"type":"VEC3"},{"bufferView":6,"componentType":5126,"count":80,"max":[1,1],"min":[0,0],"type":"VEC2"},{"bufferView":7,"componentType":5123,"count":96,"max":[79],"min":[0],"type":"SCALAR"},{"bufferView":8,"componentType":5126,"count":24,"max":[0.012500000186264515,0.07500000298023224,0.03125],"min":[-0.012500000186264515,-0.05000000074505806,-0.02500000037252903],"type":"VEC3"},{"bufferView":9,"componentType":5126,"count":24,"max":[1,1,0.9889363646507263],"min":[-1,-1,-0.9950371980667114],"type":"VEC3"},{"bufferView":10,"componentType":5126,"count":24,"max":[0.721875011920929,0.15937501192092896],"min":[0.5625,0],"type":"VEC2"},{"bufferView":11,"componentType":5123,"count":36,"max":[23],"min":[0],"type":"SCALAR"}],"materials":[{"pbrMetallicRoughness":{"metallicFactor":0,"roughnessFactor":1,"baseColorTexture":{"index":0}},"alphaMode":"MASK","alphaCutoff":0.05,"doubleSided":true}],"textures":[{"sampler":0,"source":0,"name":"t_flashlight.png"}],"samplers":[{"magFilter":9728,"minFilter":9728,"wrapS":33071,"wrapT":33071}],"images":[{"mimeType":"image/png","uri":"data:image/png;base64,"}],"meshes":[{"primitives":[{"mode":4,"attributes":{"POSITION":0,"NORMAL":1,"TEXCOORD_0":2},"indices":3,"material":0}]},{"primitives":[{"mode":4,"attributes":{"POSITION":4,"NORMAL":5,"TEXCOORD_0":6},"indices":7,"material":0}]},{"primitives":[{"mode":4,"attributes":{"POSITION":8,"NORMAL":9,"TEXCOORD_0":10},"indices":11,"material":0}]}]}