{"asset":{"version":"2.0","generator":"Blockbench 4.12.3 glTF exporter"},"scenes":[{"nodes":[20],"name":"blockbench_export"}],"scene":0,"nodes":[{"translation":[-7.819397486410608e-19,0.06410984848484852,-2.6283689029951623e-19],"name":"candleabra","mesh":0},{"translation":[1.0675221390626506e-18,0.17812499999999998,-6.672013369141566e-20],"name":"candle","mesh":1},{"translation":[0,0.20624999999999996,0],"name":"wick","mesh":2},{"translation":[0,-0.0640625,-0.07499999999999996],"name":"bone2"},{"translation":[5.261417950048364e-19,-0.03803874772705519,0.01698978831057263],"name":"cylinder","mesh":3},{"translation":[-6.102627043040442e-19,-0.0032975045458895624,-0.008486265621488256],"name":"candleabra","mesh":4},{"translation":[8.412090929920774e-20,0.04133625227294471,-0.008503522689084414],"name":"candle","mesh":5},{"translation":[4.496401602321176e-19,0.1289762477270553,-0.06649647731091554],"name":"bone","children":[4,5,6]},{"translation":[0.008503522689084414,0.04133625227294471,0],"name":"candle","mesh":6},{"translation":[0.008486265621488256,-0.0032975045458895624,0],"name":"candleabra","mesh":7},{"translation":[-0.01698978831057263,-0.03803874772705519,0],"name":"cylinder","mesh":8},{"translation":[0.0625,0.1289762477270553,-0.003996477310915542],"name":"bone2","children":[8,9,10]},{"translation":[0,-0.03803874772705519,-0.01698978831057263],"name":"cylinder","mesh":9},{"translation":[0,-0.0032975045458895624,0.008486265621488256],"name":"candleabra","mesh":10},{"translation":[0,0.04133625227294471,0.008503522689084414],"name":"candle","mesh":11},{"translation":[4.496401602321176e-19,0.1289762477270553,0.05850352268908446],"name":"bone3","children":[12,13,14]},{"translation":[-0.13350352268908441,0.04133625227294471,-0.125],"name":"candle","mesh":12},{"translation":[-0.13348626562148824,-0.0032975045458895624,-0.125],"name":"candleabra","mesh":13},{"translation":[-0.10801021168942737,-0.03803874772705519,-0.125],"name":"cylinder","mesh":14},{"translation":[0.0625,0.1289762477270553,0.12100352268908446],"name":"bone4","children":[16,17,18]},{"children":[0,1,2,3,7,11,15,19]}],"bufferViews":[{"buffer":0,"byteOffset":0,"byteLength":6480,"target":34962,"byteStride":12},{"buffer":0,"byteOffset":6480,"byteLength":6480,"target":34962,"byteStride":12},{"buffer":0,"byteOffset":12960,"byteLength":4320,"target":34962,"byteStride":8},{"buffer":0,"byteOffset":17280,"byteLength":1560,"target":34963},{"buffer":0,"byteOffset":18840,"byteLength":1440,"target":34962,"byteStride":12},{"buffer":0,"byteOffset":20280,"byteLength":1440,"target":34962,"byteStride":12},{"buffer":0,"byteOffset":21720,"byteLength":960,"target":34962,"byteStride":8},{"buffer":0,"byteOffset":22680,"byteLength":288,"target":34963},{"buffer":0,"byteOffset":22968,"byteLength":288,"target":34962,"byteStride":12},{"buffer":0,"byteOffset":23256,"byteLength":288,"target":34962,"byteStride":12},{"buffer":0,"byteOffset":23544,"byteLength":192,"target":34962,"byteStride":8},{"buffer":0,"byteOffset":23736,"byteLength":72,"target":34963},{"buffer":0,"byteOffset":23808,"byteLength":4104,"target":34962,"byteStride":12},{"buffer":0,"byteOffset":27912,"byteLength":4104,"target":34962,"byteStride":12},{"buffer":0,"byteOffset":32016,"byteLength":2736,"target":34962,"byteStride":8},{"buffer":0,"byteOffset":34752,"byteLength":936,"target":34963},{"buffer":0,"byteOffset":35688,"byteLength":3720,"target":34962,"byteStride":12},{"buffer":0,"byteOffset":39408,"byteLength":3720,"target":34962,"byteStride":12},{"buffer":0,"byteOffset":43128,"byteLength":2480,"target":34962,"byteStride":8},{"buffer":0,"byteOffset":45608,"byteLength":900,"target":34963},{"buffer":0,"byteOffset":46508,"byteLength":1440,"target":34962,"byteStride":12},{"buffer":0,"byteOffset":47948,"byteLength":1440,"target":34962,"byteStride":12},{"buffer":0,"byteOffset":49388,"byteLength":960,"target":34962,"byteStride":8},{"buffer":0,"byteOffset":50348,"byteLength":288,"target":34963},{"buffer":0,"byteOffset":50636,"byteLength":1440,"target":34962,"byteStride":12},{"buffer":0,"byteOffset":52076,"byteLength":1440,"target":34962,"byteStride":12},{"buffer":0,"byteOffset":53516,"byteLength":960,"target":34962,"byteStride":8},{"buffer":0,"byteOffset":54476,"byteLength":288,"target":34963},{"buffer":0,"byteOffset":54764,"byteLength":3720,"target":34962,"byteStride":12},{"buffer":0,"byteOffset":58484,"byteLength":3720,"target":34962,"byteStride":12},{"buffer":0,"byteOffset":62204,"byteLength":2480,"target":34962,"byteStride":8},{"buffer":0,"byteOffset":64684,"byteLength":900,"target":34963},{"buffer":0,"byteOffset":65584,"byteLength":4104,"target":34962,"byteStride":12},{"buffer":0,"byteOffset":69688,"byteLength":4104,"target":34962,"byteStride":12},{"buffer":0,"byteOffset":73792,"byteLength":2736,"target":34962,"byteStride":8},{"buffer":0,"byteOffset":76528,"byteLength":936,"target":34963},{"buffer":0,"byteOffset":77464,"byteLength":4104,"target":34962,"byteStride":12},{"buffer":0,"byteOffset":81568,"byteLength":4104,"target":34962,"byteStride":12},{"buffer":0,"byteOffset":85672,"byteLength":2736,"target":34962,"byteStride":8},{"buffer":0,"byteOffset":88408,"byteLength":936,"target":34963},{"buffer":0,"byteOffset":89344,"byteLength":3720,"target":34962,"byteStride":12},{"buffer":0,"byteOffset":93064,"byteLength":3720,"target":34962,"byteStride":12},{"buffer":0,"byteOffset":96784,"byteLength":2480,"target":34962,"byteStride":8},{"buffer":0,"byteOffset":99264,"byteLength":900,"target":34963},{"buffer":0,"byteOffset":100164,"byteLength":1440,"target":34962,"byteStride":12},{"buffer":0,"byteOffset":101604,"byteLength":1440,"target":34962,"byteStride":12},{"buffer":0,"byteOffset":103044,"byteLength":960,"target":34962,"byteStride":8},{"buffer":0,"byteOffset":104004,"byteLength":288,"target":34963},{"buffer":0,"byteOffset":104292,"byteLength":1440,"target":34962,"byteStride":12},{"buffer":0,"byteOffset":105732,"byteLength":1440,"target":34962,"byteStride":12},{"buffer":0,"byteOffset":107172,"byteLength":960,"target":34962,"byteStride":8},{"buffer":0,"byteOffset":108132,"byteLength":288,"target":34963},{"buffer":0,"byteOffset":108420,"byteLength":3720,"target":34962,"byteStride":12},{"buffer":0,"byteOffset":112140,"byteLength":3720,"target":34962,"byteStride":12},{"buffer":0,"byteOffset":115860,"byteLength":2480,"target":34962,"byteStride":8},{"buffer":0,"byteOffset":118340,"byteLength":900,"target":34963},{"buffer":0,"byteOffset":119240,"byteLength":4104,"target":34962,"byteStride":12},{"buffer":0,"byteOffset":123344,"byteLength":4104,"target":34962,"byteStride":12},{"buffer":0,"byteOffset":127448,"byteLength":2736,"target":34962,"byteStride":8},{"buffer":0,"byteOffset":130184,"byteLength":936,"target":34963}],"buffers":[{"byteLength":131120,"uri":"data:application/octet-stream;base64,"}],"accessors":[{"bufferView":0,"componentType":5126,"count":540,"max":[0.032858192920684814,0.05464015156030655,0.03125],"min":[-0.032858192920684814,-0.06410984694957733,-0.03125],"type":"VEC3"},{"bufferView":1,"componentType":5126,"count":540,"max":[0.9669824242591858,1,0.9922778606414795],"min":[-0.9669824242591858,-1,-0.9922778606414795],"type":"VEC3"},{"bufferView":2,"componentType":5126,"count":540,"max":[0.5625,0.5625],"min":[0,0],"type":"VEC2"},{"bufferView":3,"componentType":5123,"count":780,"max":[539],"min":[0],"type":"SCALAR"},{"bufferView":4,"componentType":5126,"count":120,"max":[0.015625,0.05937499925494194,0.015625],"min":[-0.015625,-0.05937499925494194,-0.015625],"type":"VEC3"},{"bufferView":5,"componentType":5126,"count":120,"max":[1,1,1],"min":[-1,-1,-1],"type":"VEC3"},{"bufferView":6,"componentType":5126,"count":120,"max":[1,1.0187499523162842],"min":[0.006124999839812517,0],"type":"VEC2"},{"bufferView":7,"componentType":5123,"count":144,"max":[119],"min":[0],"type":"SCALAR"},{"bufferView":8,"componentType":5126,"count":24,"max":[0.0015625000232830644,0.03437500074505806,0.0015625000232830644],"min":[-0.0015625000232830644,0.02812499925494194,-0.0015625000232830644],"type":"VEC3"},{"bufferView":9,"componentType":5126,"count":24,"max":[1,1,1],"min":[-1,-1,-1],"type":"VEC3"},{"bufferView":10,"componentType":5126,"count":24,"max":[0.3125,0.3125],"min":[0,0],"type":"VEC2"},{"bufferView":11,"componentType":5123,"count":36,"max":[23],"min":[0],"type":"SCALAR"},{"bufferView":12,"componentType":5126,"count":342,"max":[0.010983194224536419,0.019999999552965164,0.04325668886303902],"min":[-0.010983194224536419,-0.020625000819563866,-0.03486831113696098],"type":"VEC3"},{"bufferView":13,"componentType":5126,"count":342,"max":[0.9710168242454529,1,1],"min":[-0.9710168242454529,-1,-0.906183123588562],"type":"VEC3"},{"bufferView":14,"componentType":5126,"count":342,"max":[0.032856285572052,0.1875],"min":[0,0],"type":"VEC2"},{"bufferView":15,"componentType":5123,"count":468,"max":[341],"min":[0],"type":"SCALAR"},{"bufferView":16,"componentType":5126,"count":310,"max":[0.015322075225412846,0.016508756205439568,0.013483719900250435],"min":[-0.015322075225412846,-0.019428743049502373,-0.01351823378354311],"type":"VEC3"},{"bufferView":17,"componentType":5126,"count":310,"max":[0.9644898772239685,1,0.9874798655509949],"min":[-0.9644898772239685,-0.9474003911018372,-0.9874798655509949],"type":"VEC3"},{"bufferView":18,"componentType":5126,"count":310,"max":[0.5625,0.5625],"min":[0,0],"type":"VEC2"},{"bufferView":19,"componentType":5123,"count":450,"max":[309],"min":[0],"type":"SCALAR"},{"bufferView":20,"componentType":5126,"count":120,"max":[0.00937500037252903,0.02812499925494194,0.00937500037252903],"min":[-0.00937500037252903,-0.02812499925494194,-0.00937500037252903],"type":"VEC3"},{"bufferView":21,"componentType":5126,"count":120,"max":[1,1,1],"min":[-1,-1,-1],"type":"VEC3"},{"bufferView":22,"componentType":5126,"count":120,"max":[1,1.0187499523162842],"min":[0.006124999839812517,0],"type":"VEC2"},{"bufferView":23,"componentType":5123,"count":144,"max":[119],"min":[0],"type":"SCALAR"},{"bufferView":24,"componentType":5126,"count":120,"max":[0.00937500037252903,0.02812499925494194,0.00937500037252903],"min":[-0.00937500037252903,-0.02812499925494194,-0.00937500037252903],"type":"VEC3"},{"bufferView":25,"componentType":5126,"count":120,"max":[1,1,1],"min":[-1,-1,-1],"type":"VEC3"},{"bufferView":26,"componentType":5126,"count":120,"max":[1,1.0187499523162842],"min":[0.006124999839812517,0],"type":"VEC2"},{"bufferView":27,"componentType":5123,"count":144,"max":[119],"min":[0],"type":"SCALAR"},{"bufferView":28,"componentType":5126,"count":310,"max":[0.01351823378354311,0.016508756205439568,0.015322075225412846],"min":[-0.013483719900250435,-0.019428743049502373,-0.015322075225412846],"type":"VEC3"},{"bufferView":29,"componentType":5126,"count":310,"max":[0.9874798655509949,1,0.9644898772239685],"min":[-0.9874798655509949,-0.9474003911018372,-0.9644898772239685],"type":"VEC3"},{"bufferView":30,"componentType":5126,"count":310,"max":[0.5625,0.5625],"min":[0,0],"type":"VEC2"},{"bufferView":31,"componentType":5123,"count":450,"max":[309],"min":[0],"type":"SCALAR"},{"bufferView":32,"componentType":5126,"count":342,"max":[0.03486831113696098,0.019999999552965164,0.010983194224536419],"min":[-0.04325668886303902,-0.020625000819563866,-0.010983194224536419],"type":"VEC3"},{"bufferView":33,"componentType":5126,"count":342,"max":[0.906183123588562,1,0.9710168242454529],"min":[-1,-1,-0.9710168242454529],"type":"VEC3"},{"bufferView":34,"componentType":5126,"count":342,"max":[0.032856285572052,0.1875],"min":[0,0],"type":"VEC2"},{"bufferView":35,"componentType":5123,"count":468,"max":[341],"min":[0],"type":"SCALAR"},{"bufferView":36,"componentType":5126,"count":342,"max":[0.010983194224536419,0.019999999552965164,0.03486831113696098],"min":[-0.010983194224536419,-0.020625000819563866,-0.04325668886303902],"type":"VEC3"},{"bufferView":37,"componentType":5126,"count":342,"max":[0.9710168242454529,1,0.906183123588562],"min":[-0.9710168242454529,-1,-1],"type":"VEC3"},{"bufferView":38,"componentType":5126,"count":342,"max":[0.032856285572052,0.1875],"min":[0,0],"type":"VEC2"},{"bufferView":39,"componentType":5123,"count":468,"max":[341],"min":[0],"type":"SCALAR"},{"bufferView":40,"componentType":5126,"count":310,"max":[0.015322075225412846,0.016508756205439568,0.01351823378354311],"min":[-0.015322075225412846,-0.019428743049502373,-0.013483719900250435],"type":"VEC3"},{"bufferView":41,"componentType":5126,"count":310,"max":[0.9644898772239685,1,0.9874798655509949],"min":[-0.9644898772239685,-0.9474003911018372,-0.9874798655509949],"type":"VEC3"},{"bufferView":42,"componentType":5126,"count":310,"max":[0.5625,0.5625],"min":[0,0],"type":"VEC2"},{"bufferView":43,"componentType":5123,"count":450,"max":[309],"min":[0],"type":"SCALAR"},{"bufferView":44,"componentType":5126,"count":120,"max":[0.00937500037252903,0.02812499925494194,0.00937500037252903],"min":[-0.00937500037252903,-0.02812499925494194,-0.00937500037252903],"type":"VEC3"},{"bufferView":45,"componentType":5126,"count":120,"max":[1,1,1],"min":[-1,-1,-1],"type":"VEC3"},{"bufferView":46,"componentType":5126,"count":120,"max":[1,1.0187499523162842],"min":[0.006124999839812517,0],"type":"VEC2"},{"bufferView":47,"componentType":5123,"count":144,"max":[119],"min":[0],"type":"SCALAR"},{"bufferView":48,"componentType":5126,"count":120,"max":[0.00937500037252903,0.02812499925494194,0.00937500037252903],"min":[-0.00937500037252903,-0.02812499925494194,-0.00937500037252903],"type":"VEC3"},{"bufferView":49,"componentType":5126,"count":120,"max":[1,1,1],"min":[-1,-1,-1],"type":"VEC3"},{"bufferView":50,"componentType":5126,"count":120,"max":[1,1.0187499523162842],"min":[0.006124999839812517,0],"type":"VEC2"},{"bufferView":51,"componentType":5123,"count":144,"max":[119],"min":[0],"type":"SCALAR"},{"bufferView":52,"componentType":5126,"count":310,"max":[0.013483719900250435,0.016508756205439568,0.015322075225412846],"min":[-0.01351823378354311,-0.019428743049502373,-0.015322075225412846],"type":"VEC3"},{"bufferView":53,"componentType":5126,"count":310,"max":[0.9874798655509949,1,0.9644898772239685],"min":[-0.9874798655509949,-0.9474003911018372,-0.9644898772239685],"type":"VEC3"},{"bufferView":54,"componentType":5126,"count":310,"max":[0.5625,0.5625],"min":[0,0],"type":"VEC2"},{"bufferView":55,"componentType":5123,"count":450,"max":[309],"min":[0],"type":"SCALAR"},{"bufferView":56,"componentType":5126,"count":342,"max":[0.04325668886303902,0.019999999552965164,0.010983194224536419],"min":[-0.03486831113696098,-0.020625000819563866,-0.010983194224536419],"type":"VEC3"},{"bufferView":57,"componentType":5126,"count":342,"max":[1,1,0.9710168242454529],"min":[-0.906183123588562,-1,-0.9710168242454529],"type":"VEC3"},{"bufferView":58,"componentType":5126,"count":342,"max":[0.032856285572052,0.1875],"min":[0,0],"type":"VEC2"},{"bufferView":59,"componentType":5123,"count":468,"max":[341],"min":[0],"type":"SCALAR"}],"materials":[{"pbrMetallicRoughness":{"metallicFactor":0,"roughnessFactor":1,"baseColorTexture":{"index":0}},"alphaMode":"MASK","alphaCutoff":0.05,"doubleSided":true},{"pbrMetallicRoughness":{"metallicFactor":0,"roughnessFactor":1,"baseColorTexture":{"index":1}},"alphaMode":"MASK","alphaCutoff":0.05,"doubleSided":true},{"pbrMetallicRoughness":{"metallicFactor":0,"roughnessFactor":1,"baseColorTexture":{"index":2}},"alphaMode":"MASK","alphaCutoff":0.05,"doubleSided":true}],"textures":[{"sampler":0,"source":0,"name":"texture"},{"sampler":1,"source":1,"name":"texture"},{"sampler":2,"source":2,"name":"texture"}],"samplers":[{"magFilter":9728,"minFilter":9728,"wrapS":33071,"wrapT":33071},{"magFilter":9728,"minFilter":9728,"wrapS":33071,"wrapT":33071},{"magFilter":9728,"minFilter":9728,"wrapS":33071,"wrapT":33071}],"images":[{"mimeType":"image/png","uri":"data:image/png;base64,"},{"mimeType":"image/png","uri":"data:image/png;base64,"},{"mimeType":"image/png","uri":"data:image/png;base64,"}],"meshes":[{"primitives":[{"mode":4,"attributes":{"POSITION":0,"NORMAL":1,"TEXCOORD_0":2},"indices":3,"material":0}]},{"primitives":[{"mode":4,"attributes":{"POSITION":4,"NORMAL":5,"TEXCOORD_0":6},"indices":7,"material":1}]},{"primitives":[{"mode":4,"attributes":{"POSITION":8,"NORMAL":9,"TEXCOORD_0":10},"indices":11,"material":2}]},{"primitives":[{"mode":4,"attributes":{"POSITION":12,"NORMAL":13,"TEXCOORD_0":14},"indices":15,"material":0}]},{"primitives":[{"mode":4,"attributes":{"POSITION":16,"NORMAL":17,"TEXCOORD_0":18},"indices":19,"material":0}]},{"primitives":[{"mode":4,"attributes":{"POSITION":20,"NORMAL":21,"TEXCOORD_0":22},"indices":23,"material":1}]},{"primitives":[{"mode":4,"attributes":{"POSITION":24,"NORMAL":25,"TEXCOORD_0":26},"indices":27,"material":1}]},{"primitives":[{"mode":4,"attributes":{"POSITION":28,"NORMAL":29,"TEXCOORD_0":30},"indices":31,"material":0}]},{"primitives":[{"mode":4,"attributes":{"POSITION":32,"NORMAL":33,"TEXCOORD_0":34},"indices":35,"material":0}]},{"primitives":[{"mode":4,"attributes":{"POSITION":36,"NORMAL":37,"TEXCOORD_0":38},"indices":39,"material":0}]},{"primitives":[{"mode":4,"attributes":{"POSITION":40,"NORMAL":41,"TEXCOORD_0":42},"indices":43,"material":0}]},{"primitives":[{"mode":4,"attributes":{"POSITION":44,"NORMAL":45,"TEXCOORD_0":46},"indices":47,"material":1}]},{"primitives":[{"mode":4,"attributes":{"POSITION":48,"NORMAL":49,"TEXCOORD_0":50},"indices":51,"material":1}]},{"primitives":[{"mode":4,"attributes":{"POSITION":52,"NORMAL":53,"TEXCOORD_0":54},"indices":55,"material":0}]},{"primitives":[{"mode":4,"attributes":{"POSITION":56,"NORMAL":57,"TEXCOORD_0":58},"indices":59,"material":0}]}]}