{"asset":{"version":"2.0","generator":"Blockbench 4.12.4 glTF exporter"},"scenes":[{"nodes":[3],"name":"blockbench_export"}],"scene":0,"nodes":[{"translation":[6.60847038467355e-19,0.25,-4.031166934650866e-17],"name":"cylinder","mesh":0},{"rotation":[0,0,0.3420201433256687,0.9396926207859084],"translation":[-0.1,1,-4.031166934650866e-17],"name":"cylinder","mesh":1},{"rotation":[0.18721896396108298,-0.169739026332911,-0.6671285258251156,0.7007690436251461],"translation":[0,1,-4.031166934650866e-17],"name":"cylinder","mesh":2},{"children":[0,1,2]}],"bufferViews":[{"buffer":0,"byteOffset":0,"byteLength":2880,"target":34962,"byteStride":12},{"buffer":0,"byteOffset":2880,"byteLength":2880,"target":34962,"byteStride":12},{"buffer":0,"byteOffset":5760,"byteLength":1920,"target":34962,"byteStride":8},{"buffer":0,"byteOffset":7680,"byteLength":672,"target":34963},{"buffer":0,"byteOffset":8352,"byteLength":2880,"target":34962,"byteStride":12},{"buffer":0,"byteOffset":11232,"byteLength":2880,"target":34962,"byteStride":12},{"buffer":0,"byteOffset":14112,"byteLength":1920,"target":34962,"byteStride":8},{"buffer":0,"byteOffset":16032,"byteLength":672,"target":34963},{"buffer":0,"byteOffset":16704,"byteLength":2880,"target":34962,"byteStride":12},{"buffer":0,"byteOffset":19584,"byteLength":2880,"target":34962,"byteStride":12},{"buffer":0,"byteOffset":22464,"byteLength":1920,"target":34962,"byteStride":8},{"buffer":0,"byteOffset":24384,"byteLength":672,"target":34963}],"buffers":[{"byteLength":25056,"uri":"data:application/octet-stream;base64,"}],"accessors":[{"bufferView":0,"componentType":5126,"count":240,"max":[0.30000001192092896,1.446980595588684,0.25],"min":[-0.30000001192092896,-0.25,-0.25],"type":"VEC3"},{"bufferView":1,"componentType":5126,"count":240,"max":[0.9999070167541504,0.6000000238418579,1],"min":[-0.9987523555755615,-1,-1],"type":"VEC3"},{"bufferView":2,"componentType":5126,"count":240,"max":[0.9034873843193054,0.876583456993103],"min":[0.00009062499884748831,0],"type":"VEC2"},{"bufferView":3,"componentType":5123,"count":336,"max":[239],"min":[0],"type":"SCALAR"},{"bufferView":4,"componentType":5126,"count":240,"max":[0.19001774489879608,0.7238720655441284,0.08124999701976776],"min":[-0.13124999403953552,-0.08124999701976776,-0.08124999701976776],"type":"VEC3"},{"bufferView":5,"componentType":5126,"count":240,"max":[0.999627411365509,0.9843631386756897,1],"min":[-0.999627411365509,-1,-1],"type":"VEC3"},{"bufferView":6,"componentType":5126,"count":240,"max":[0.8310684561729431,0.981869101524353],"min":[0.004094306379556656,0.009784400463104248],"type":"VEC2"},{"bufferView":7,"componentType":5123,"count":336,"max":[239],"min":[0],"type":"SCALAR"},{"bufferView":8,"componentType":5126,"count":240,"max":[0.13124999403953552,0.5738720297813416,0.08124999701976776],"min":[-0.19001774489879608,0.06875000149011612,-0.08124999701976776],"type":"VEC3"},{"bufferView":9,"componentType":5126,"count":240,"max":[0.9990542531013489,0.9937566518783569,1],"min":[-0.9990542531013489,-1,-1],"type":"VEC3"},{"bufferView":10,"componentType":5126,"count":240,"max":[0.9371284246444702,0.981869101524353],"min":[0.12133240699768066,0],"type":"VEC2"},{"bufferView":11,"componentType":5123,"count":336,"max":[239],"min":[0],"type":"SCALAR"}],"materials":[{"pbrMetallicRoughness":{"metallicFactor":0,"roughnessFactor":1,"baseColorTexture":{"index":0}},"alphaMode":"MASK","alphaCutoff":0.05,"doubleSided":true}],"textures":[{"sampler":0,"source":0,"name":"t_tree.png"}],"samplers":[{"magFilter":9728,"minFilter":9728,"wrapS":33071,"wrapT":33071}],"images":[{"mimeType":"image/png","uri":"data:image/png;base64,"}],"meshes":[{"primitives":[{"mode":4,"attributes":{"POSITION":0,"NORMAL":1,"TEXCOORD_0":2},"indices":3,"material":0}]},{"primitives":[{"mode":4,"attributes":{"POSITION":4,"NORMAL":5,"TEXCOORD_0":6},"indices":7,"material":0}]},{"primitives":[{"mode":4,"attributes":{"POSITION":8,"NORMAL":9,"TEXCOORD_0":10},"indices":11,"material":0}]}]}