{"asset":{"version":"2.0","generator":"Blockbench 4.12.4 glTF exporter"},"scenes":[{"nodes":[8],"name":"blockbench_export"}],"scene":0,"nodes":[{"rotation":[0,0,0.7071067811865475,0.7071067811865476],"translation":[0,0.05625,0],"name":"cylinder","mesh":0},{"translation":[0,0.03125,-0.08125],"name":"cuboid","mesh":1},{"rotation":[0.7071067811865475,0,0,0.7071067811865476],"translation":[0,-0.00625,0],"name":"cuboid","mesh":2},{"translation":[0,-0.025,-0.0125],"name":"cuboid","mesh":3},{"translation":[0,0.00506875,0.005776875],"name":"cuboid","mesh":4},{"rotation":[0.7071067811865475,0,0,0.7071067811865476],"translation":[0,0.03125,-0.1125],"name":"cylinder","mesh":5},{"rotation":[0.7071067811865475,0,0,0.7071067811865476],"translation":[0,0.03125,-0.2875],"name":"cylinder","mesh":6},{"name":"plasma_pistol","children":[2,3,4,5,6]},{"children":[0,1,7]}],"bufferViews":[{"buffer":0,"byteOffset":0,"byteLength":1728,"target":34962,"byteStride":12},{"buffer":0,"byteOffset":1728,"byteLength":1728,"target":34962,"byteStride":12},{"buffer":0,"byteOffset":3456,"byteLength":1152,"target":34962,"byteStride":8},{"buffer":0,"byteOffset":4608,"byteLength":384,"target":34963},{"buffer":0,"byteOffset":4992,"byteLength":288,"target":34962,"byteStride":12},{"buffer":0,"byteOffset":5280,"byteLength":288,"target":34962,"byteStride":12},{"buffer":0,"byteOffset":5568,"byteLength":192,"target":34962,"byteStride":8},{"buffer":0,"byteOffset":5760,"byteLength":72,"target":34963},{"buffer":0,"byteOffset":5832,"byteLength":672,"target":34962,"byteStride":12},{"buffer":0,"byteOffset":6504,"byteLength":672,"target":34962,"byteStride":12},{"buffer":0,"byteOffset":7176,"byteLength":448,"target":34962,"byteStride":8},{"buffer":0,"byteOffset":7624,"byteLength":168,"target":34963},{"buffer":0,"byteOffset":7792,"byteLength":1056,"target":34962,"byteStride":12},{"buffer":0,"byteOffset":8848,"byteLength":1056,"target":34962,"byteStride":12},{"buffer":0,"byteOffset":9904,"byteLength":704,"target":34962,"byteStride":8},{"buffer":0,"byteOffset":10608,"byteLength":264,"target":34963},{"buffer":0,"byteOffset":10872,"byteLength":3072,"target":34962,"byteStride":12},{"buffer":0,"byteOffset":13944,"byteLength":3072,"target":34962,"byteStride":12},{"buffer":0,"byteOffset":17016,"byteLength":2048,"target":34962,"byteStride":8},{"buffer":0,"byteOffset":19064,"byteLength":768,"target":34963},{"buffer":0,"byteOffset":19832,"byteLength":1728,"target":34962,"byteStride":12},{"buffer":0,"byteOffset":21560,"byteLength":1728,"target":34962,"byteStride":12},{"buffer":0,"byteOffset":23288,"byteLength":1152,"target":34962,"byteStride":8},{"buffer":0,"byteOffset":24440,"byteLength":384,"target":34963},{"buffer":0,"byteOffset":24824,"byteLength":960,"target":34962,"byteStride":12},{"buffer":0,"byteOffset":25784,"byteLength":960,"target":34962,"byteStride":12},{"buffer":0,"byteOffset":26744,"byteLength":640,"target":34962,"byteStride":8},{"buffer":0,"byteOffset":27384,"byteLength":192,"target":34963}],"buffers":[{"byteLength":27576,"uri":"data:application/octet-stream;base64,"}],"accessors":[{"bufferView":0,"componentType":5126,"count":144,"max":[0.03125,0.012500000186264515,0.03125],"min":[-0.03125,-0.012500000186264515,-0.03125],"type":"VEC3"},{"bufferView":1,"componentType":5126,"count":144,"max":[1,1,1],"min":[-1,-1,-1],"type":"VEC3"},{"bufferView":2,"componentType":5126,"count":144,"max":[0.6578137278556824,0.9624999761581421],"min":[0.5874999761581421,0.8921862244606018],"type":"VEC2"},{"bufferView":3,"componentType":5123,"count":192,"max":[143],"min":[0],"type":"SCALAR"},{"bufferView":4,"componentType":5126,"count":24,"max":[0.0031250000465661287,0.03750000149011612,0.05000000074505806],"min":[-0.0031250000465661287,-0.03750000149011612,-0.18125000596046448],"type":"VEC3"},{"bufferView":5,"componentType":5126,"count":24,"max":[1,1,1],"min":[-1,-1,-1],"type":"VEC3"},{"bufferView":6,"componentType":5126,"count":24,"max":[0.36250001192092896,0.856249988079071],"min":[0.3187499940395355,0.8125],"type":"VEC2"},{"bufferView":7,"componentType":5123,"count":36,"max":[23],"min":[0],"type":"SCALAR"},{"bufferView":8,"componentType":5126,"count":56,"max":[0.004687500186264515,0.0062500000931322575,0.00937500037252903],"min":[-0.004687500186264515,-0.0031250000465661287,-0.0062500000931322575],"type":"VEC3"},{"bufferView":9,"componentType":5126,"count":56,"max":[1,0.9363349676132202,1],"min":[-1,-0.9363349676132202,-1],"type":"VEC3"},{"bufferView":10,"componentType":5126,"count":56,"max":[0.5390625,0.5093749761581421],"min":[0.2734375,0.25],"type":"VEC2"},{"bufferView":11,"componentType":5123,"count":84,"max":[55],"min":[0],"type":"SCALAR"},{"bufferView":12,"componentType":5126,"count":88,"max":[0.004687500186264515,0.02500000037252903,0.03437500074505806],"min":[-0.004687500186264515,-0.0031250000465661287,-0.02187499962747097],"type":"VEC3"},{"bufferView":13,"componentType":5126,"count":88,"max":[1,1,1],"min":[-1,-1,-1],"type":"VEC3"},{"bufferView":14,"componentType":5126,"count":88,"max":[0.535937488079071,0.5625],"min":[0.125,0],"type":"VEC2"},{"bufferView":15,"componentType":5123,"count":132,"max":[87],"min":[0],"type":"SCALAR"},{"bufferView":16,"componentType":5126,"count":256,"max":[0.017500000074505806,0.05743125081062317,0.07527812570333481],"min":[-0.017500000074505806,-0.08536562323570251,-0.09327687323093414],"type":"VEC3"},{"bufferView":17,"componentType":5126,"count":256,"max":[1,1,0.9821301698684692],"min":[-1,-1,-1],"type":"VEC3"},{"bufferView":18,"componentType":5126,"count":256,"max":[0.9739875197410583,0.9762343764305115],"min":[0,0],"type":"VEC2"},{"bufferView":19,"componentType":5123,"count":384,"max":[255],"min":[0],"type":"SCALAR"},{"bufferView":20,"componentType":5126,"count":144,"max":[0.03125,0.09375,0.03125],"min":[-0.03125,-0.14374999701976776,-0.03125],"type":"VEC3"},{"bufferView":21,"componentType":5126,"count":144,"max":[1,1,1],"min":[-1,-1,-1],"type":"VEC3"},{"bufferView":22,"componentType":5126,"count":144,"max":[0.5625,1],"min":[0,0],"type":"VEC2"},{"bufferView":23,"componentType":5123,"count":192,"max":[143],"min":[0],"type":"SCALAR"},{"bufferView":24,"componentType":5126,"count":80,"max":[0.012500000186264515,0.03125,0.012500000186264515],"min":[-0.012500000186264515,0.01875000074505806,-0.012500000186264515],"type":"VEC3"},{"bufferView":25,"componentType":5126,"count":80,"max":[1,1,1],"min":[-1,-1,-1],"type":"VEC3"},{"bufferView":26,"componentType":5126,"count":80,"max":[0.75,0.893750011920929],"min":[0.20624999701976776,0.5],"type":"VEC2"},{"bufferView":27,"componentType":5123,"count":96,"max":[79],"min":[0],"type":"SCALAR"}],"materials":[{"pbrMetallicRoughness":{"metallicFactor":0,"roughnessFactor":1,"baseColorTexture":{"index":0}},"alphaMode":"MASK","alphaCutoff":0.05,"doubleSided":true}],"textures":[{"sampler":0,"source":0,"name":"t_plasma_pistol"}],"samplers":[{"magFilter":9728,"minFilter":9728,"wrapS":33071,"wrapT":33071}],"images":[{"mimeType":"image/png","uri":"data:image/png;base64,"}],"meshes":[{"primitives":[{"mode":4,"attributes":{"POSITION":0,"NORMAL":1,"TEXCOORD_0":2},"indices":3,"material":0}]},{"primitives":[{"mode":4,"attributes":{"POSITION":4,"NORMAL":5,"TEXCOORD_0":6},"indices":7,"material":0}]},{"primitives":[{"mode":4,"attributes":{"POSITION":8,"NORMAL":9,"TEXCOORD_0":10},"indices":11,"material":0}]},{"primitives":[{"mode":4,"attributes":{"POSITION":12,"NORMAL":13,"TEXCOORD_0":14},"indices":15,"material":0}]},{"primitives":[{"mode":4,"attributes":{"POSITION":16,"NORMAL":17,"TEXCOORD_0":18},"indices":19,"material":0}]},{"primitives":[{"mode":4,"attributes":{"POSITION":20,"NORMAL":21,"TEXCOORD_0":22},"indices":23,"material":0}]},{"primitives":[{"mode":4,"attributes":{"POSITION":24,"NORMAL":25,"TEXCOORD_0":26},"indices":27,"material":0}]}]}