{"asset":{"version":"2.0","generator":"Blockbench 4.12.2 glTF exporter"},"scenes":[{"nodes":[3],"name":"blockbench_export"}],"scene":0,"nodes":[{"translation":[0,0.025,0],"name":"light","mesh":0},{"translation":[0,0.0062500000000000056,0],"name":"base","mesh":1},{"translation":[0,0.01874999999999999,0],"name":"inside","mesh":2},{"children":[0,1,2]}],"bufferViews":[{"buffer":0,"byteOffset":0,"byteLength":3168,"target":34962,"byteStride":12},{"buffer":0,"byteOffset":3168,"byteLength":3168,"target":34962,"byteStride":12},{"buffer":0,"byteOffset":6336,"byteLength":2112,"target":34962,"byteStride":8},{"buffer":0,"byteOffset":8448,"byteLength":720,"target":34963},{"buffer":0,"byteOffset":9168,"byteLength":4608,"target":34962,"byteStride":12},{"buffer":0,"byteOffset":13776,"byteLength":4608,"target":34962,"byteStride":12},{"buffer":0,"byteOffset":18384,"byteLength":3072,"target":34962,"byteStride":8},{"buffer":0,"byteOffset":21456,"byteLength":1152,"target":34963},{"buffer":0,"byteOffset":22608,"byteLength":288,"target":34962,"byteStride":12},{"buffer":0,"byteOffset":22896,"byteLength":288,"target":34962,"byteStride":12},{"buffer":0,"byteOffset":23184,"byteLength":192,"target":34962,"byteStride":8},{"buffer":0,"byteOffset":23376,"byteLength":72,"target":34963}],"buffers":[{"byteLength":23448,"uri":"data:application/octet-stream;base64,"}],"accessors":[{"bufferView":0,"componentType":5126,"count":264,"max":[0.03125,0.03281249850988388,0.03125],"min":[-0.03125,-0.02968749962747097,-0.03125],"type":"VEC3"},{"bufferView":1,"componentType":5126,"count":264,"max":[0.9659258127212524,0.9659258127212524,0.9659258127212524],"min":[-0.9659258127212524,-0.9659258127212524,-0.9659258127212524],"type":"VEC3"},{"bufferView":2,"componentType":5126,"count":264,"max":[0.9425955414772034,0.9711991548538208],"min":[0.7862955927848816,0.7836991548538208],"type":"VEC2"},{"bufferView":3,"componentType":5123,"count":360,"max":[263],"min":[0],"type":"SCALAR"},{"bufferView":4,"componentType":5126,"count":384,"max":[0.03125,0.01875000074505806,0.03125],"min":[-0.03125,-0.012500000186264515,-0.03125],"type":"VEC3"},{"bufferView":5,"componentType":5126,"count":384,"max":[0.9362228512763977,0.9946810603141785,0.9362228512763977],"min":[-0.9362228512763977,-0.9946810603141785,-0.9362228512763977],"type":"VEC3"},{"bufferView":6,"componentType":5126,"count":384,"max":[0.65625,0.6875],"min":[0,0],"type":"VEC2"},{"bufferView":7,"componentType":5123,"count":576,"max":[383],"min":[0],"type":"SCALAR"},{"bufferView":8,"componentType":5126,"count":24,"max":[0.0062500000931322575,0.01875000074505806,0.0062500000931322575],"min":[-0.0062500000931322575,2.7755575615628914e-17,-0.0062500000931322575],"type":"VEC3"},{"bufferView":9,"componentType":5126,"count":24,"max":[1,1,1],"min":[-1,-1,-1],"type":"VEC3"},{"bufferView":10,"componentType":5126,"count":24,"max":[0.25,1],"min":[0,0],"type":"VEC2"},{"bufferView":11,"componentType":5123,"count":36,"max":[23],"min":[0],"type":"SCALAR"}],"materials":[{"pbrMetallicRoughness":{"metallicFactor":0,"roughnessFactor":1,"baseColorTexture":{"index":0}},"alphaMode":"MASK","alphaCutoff":0.05,"doubleSided":true}],"textures":[{"sampler":0,"source":0,"name":"t_light"}],"samplers":[{"magFilter":9728,"minFilter":9728,"wrapS":33071,"wrapT":33071}],"images":[{"mimeType":"image/png","uri":"data:image/png;base64,"}],"meshes":[{"primitives":[{"mode":4,"attributes":{"POSITION":0,"NORMAL":1,"TEXCOORD_0":2},"indices":3,"material":0}]},{"primitives":[{"mode":4,"attributes":{"POSITION":4,"NORMAL":5,"TEXCOORD_0":6},"indices":7,"material":0}]},{"primitives":[{"mode":4,"attributes":{"POSITION":8,"NORMAL":9,"TEXCOORD_0":10},"indices":11,"material":0}]}]}