{"asset":{"version":"2.0","generator":"Blockbench 4.12.3 glTF exporter"},"scenes":[{"nodes":[5],"name":"blockbench_export"}],"scene":0,"nodes":[{"translation":[0,-0.03125,0.0125],"name":"hilt","mesh":0},{"translation":[0,0.021875,0.0125],"name":"crossguard","mesh":1},{"translation":[0,0.03125,0.0125],"name":"blade","mesh":2},{"rotation":[0,0,0.7071067811865475,0.7071067811865476],"translation":[0,-0.0625,0.0125],"name":"cylinder","mesh":3},{"name":"dagger","children":[0,1,2,3]},{"children":[4]}],"bufferViews":[{"buffer":0,"byteOffset":0,"byteLength":2112,"target":34962,"byteStride":12},{"buffer":0,"byteOffset":2112,"byteLength":2112,"target":34962,"byteStride":12},{"buffer":0,"byteOffset":4224,"byteLength":1408,"target":34962,"byteStride":8},{"buffer":0,"byteOffset":5632,"byteLength":480,"target":34963},{"buffer":0,"byteOffset":6112,"byteLength":960,"target":34962,"byteStride":12},{"buffer":0,"byteOffset":7072,"byteLength":960,"target":34962,"byteStride":12},{"buffer":0,"byteOffset":8032,"byteLength":640,"target":34962,"byteStride":8},{"buffer":0,"byteOffset":8672,"byteLength":192,"target":34963},{"buffer":0,"byteOffset":8864,"byteLength":1176,"target":34962,"byteStride":12},{"buffer":0,"byteOffset":10040,"byteLength":1176,"target":34962,"byteStride":12},{"buffer":0,"byteOffset":11216,"byteLength":784,"target":34962,"byteStride":8},{"buffer":0,"byteOffset":12000,"byteLength":276,"target":34963},{"buffer":0,"byteOffset":12276,"byteLength":1728,"target":34962,"byteStride":12},{"buffer":0,"byteOffset":14004,"byteLength":1728,"target":34962,"byteStride":12},{"buffer":0,"byteOffset":15732,"byteLength":1152,"target":34962,"byteStride":8},{"buffer":0,"byteOffset":16884,"byteLength":384,"target":34963}],"buffers":[{"byteLength":17268,"uri":"data:application/octet-stream;base64,"}],"accessors":[{"bufferView":0,"componentType":5126,"count":176,"max":[0.015625,0.08124999701976776,0.015625],"min":[-0.015625,-0.01875000074505806,-0.015625],"type":"VEC3"},{"bufferView":1,"componentType":5126,"count":176,"max":[1,1,1],"min":[-1,-1,-1],"type":"VEC3"},{"bufferView":2,"componentType":5126,"count":176,"max":[0.78125,0.5000500082969666],"min":[0,0],"type":"VEC2"},{"bufferView":3,"componentType":5123,"count":240,"max":[175],"min":[0],"type":"SCALAR"},{"bufferView":4,"componentType":5126,"count":80,"max":[0.01875000074505806,0.03437500074505806,0.03750000149011612],"min":[-0.01875000074505806,0.02812499925494194,-0.03750000149011612],"type":"VEC3"},{"bufferView":5,"componentType":5126,"count":80,"max":[1,1,1],"min":[-1,-1,-1],"type":"VEC3"},{"bufferView":6,"componentType":5126,"count":80,"max":[0.0338243767619133,0.0625],"min":[0,0],"type":"VEC2"},{"bufferView":7,"componentType":5123,"count":96,"max":[79],"min":[0],"type":"SCALAR"},{"bufferView":8,"componentType":5126,"count":98,"max":[0.0078125,0.21250000596046448,0.01875000074505806],"min":[-0.0078125,0.02500000037252903,-0.01875000074505806],"type":"VEC3"},{"bufferView":9,"componentType":5126,"count":98,"max":[0.9930229187011719,0.4519619047641754,1],"min":[-0.9930229187011719,-1,-1],"type":"VEC3"},{"bufferView":10,"componentType":5126,"count":98,"max":[0.5,0.5],"min":[0,0],"type":"VEC2"},{"bufferView":11,"componentType":5123,"count":138,"max":[97],"min":[0],"type":"SCALAR"},{"bufferView":12,"componentType":5126,"count":144,"max":[0.012500000186264515,0.00937500037252903,0.012500000186264515],"min":[-0.012500000186264515,-0.00937500037252903,-0.012500000186264515],"type":"VEC3"},{"bufferView":13,"componentType":5126,"count":144,"max":[1,1,1],"min":[-1,-1,-1],"type":"VEC3"},{"bufferView":14,"componentType":5126,"count":144,"max":[0.5,1],"min":[0,0],"type":"VEC2"},{"bufferView":15,"componentType":5123,"count":192,"max":[143],"min":[0],"type":"SCALAR"}],"materials":[{"pbrMetallicRoughness":{"metallicFactor":0,"roughnessFactor":1,"baseColorTexture":{"index":0}},"alphaMode":"MASK","alphaCutoff":0.05,"doubleSided":true}],"textures":[{"sampler":0,"source":0,"name":"t_dagger.png"}],"samplers":[{"magFilter":9728,"minFilter":9728,"wrapS":33071,"wrapT":33071}],"images":[{"mimeType":"image/png","uri":"data:image/png;base64,"}],"meshes":[{"primitives":[{"mode":4,"attributes":{"POSITION":0,"NORMAL":1,"TEXCOORD_0":2},"indices":3,"material":0}]},{"primitives":[{"mode":4,"attributes":{"POSITION":4,"NORMAL":5,"TEXCOORD_0":6},"indices":7,"material":0}]},{"primitives":[{"mode":4,"attributes":{"POSITION":8,"NORMAL":9,"TEXCOORD_0":10},"indices":11,"material":0}]},{"primitives":[{"mode":4,"attributes":{"POSITION":12,"NORMAL":13,"TEXCOORD_0":14},"indices":15,"material":0}]}]}