{"asset":{"version":"2.0","generator":"Blockbench 4.12.3 glTF exporter"},"scenes":[{"nodes":[13],"name":"blockbench_export"}],"scene":0,"nodes":[{"translation":[0,0.25,0.125],"name":"cuboid","mesh":0},{"name":"left_door","children":[0]},{"translation":[0,0.25,-0.125],"name":"cuboid","mesh":1},{"name":"right_door","children":[2]},{"name":"cuboid","mesh":2},{"translation":[0,-0.125,0],"name":"top_door","children":[4]},{"translation":[0,-0.1875,0],"name":"cuboid","mesh":3},{"translation":[0,-0.025000000000000022,0],"name":"screen_dead","mesh":4},{"translation":[0,-0.025000000000000022,0],"name":"screen_functional","mesh":5},{"translation":[0,-0.025000000000000022,0],"name":"screen_locked","mesh":6},{"translation":[0,-0.025000000000000022,0],"name":"screen_broken","mesh":7},{"translation":[0,0.3125,0],"name":"bottom_door","children":[6,7,8,9,10]},{"name":"door","children":[1,3,5,11]},{"children":[12]}],"bufferViews":[{"buffer":0,"byteOffset":0,"byteLength":288,"target":34962,"byteStride":12},{"buffer":0,"byteOffset":288,"byteLength":288,"target":34962,"byteStride":12},{"buffer":0,"byteOffset":576,"byteLength":192,"target":34962,"byteStride":8},{"buffer":0,"byteOffset":768,"byteLength":72,"target":34963},{"buffer":0,"byteOffset":840,"byteLength":288,"target":34962,"byteStride":12},{"buffer":0,"byteOffset":1128,"byteLength":288,"target":34962,"byteStride":12},{"buffer":0,"byteOffset":1416,"byteLength":192,"target":34962,"byteStride":8},{"buffer":0,"byteOffset":1608,"byteLength":72,"target":34963},{"buffer":0,"byteOffset":1680,"byteLength":288,"target":34962,"byteStride":12},{"buffer":0,"byteOffset":1968,"byteLength":288,"target":34962,"byteStride":12},{"buffer":0,"byteOffset":2256,"byteLength":192,"target":34962,"byteStride":8},{"buffer":0,"byteOffset":2448,"byteLength":72,"target":34963},{"buffer":0,"byteOffset":2520,"byteLength":288,"target":34962,"byteStride":12},{"buffer":0,"byteOffset":2808,"byteLength":288,"target":34962,"byteStride":12},{"buffer":0,"byteOffset":3096,"byteLength":192,"target":34962,"byteStride":8},{"buffer":0,"byteOffset":3288,"byteLength":72,"target":34963},{"buffer":0,"byteOffset":3360,"byteLength":1056,"target":34962,"byteStride":12},{"buffer":0,"byteOffset":4416,"byteLength":1056,"target":34962,"byteStride":12},{"buffer":0,"byteOffset":5472,"byteLength":704,"target":34962,"byteStride":8},{"buffer":0,"byteOffset":6176,"byteLength":264,"target":34963},{"buffer":0,"byteOffset":6440,"byteLength":1056,"target":34962,"byteStride":12},{"buffer":0,"byteOffset":7496,"byteLength":1056,"target":34962,"byteStride":12},{"buffer":0,"byteOffset":8552,"byteLength":704,"target":34962,"byteStride":8},{"buffer":0,"byteOffset":9256,"byteLength":264,"target":34963},{"buffer":0,"byteOffset":9520,"byteLength":1056,"target":34962,"byteStride":12},{"buffer":0,"byteOffset":10576,"byteLength":1056,"target":34962,"byteStride":12},{"buffer":0,"byteOffset":11632,"byteLength":704,"target":34962,"byteStride":8},{"buffer":0,"byteOffset":12336,"byteLength":264,"target":34963},{"buffer":0,"byteOffset":12600,"byteLength":1056,"target":34962,"byteStride":12},{"buffer":0,"byteOffset":13656,"byteLength":1056,"target":34962,"byteStride":12},{"buffer":0,"byteOffset":14712,"byteLength":704,"target":34962,"byteStride":8},{"buffer":0,"byteOffset":15416,"byteLength":264,"target":34963},{"buffer":0,"byteOffset":15680,"byteLength":4},{"buffer":0,"byteOffset":15684,"byteLength":12},{"buffer":0,"byteOffset":15696,"byteLength":4},{"buffer":0,"byteOffset":15700,"byteLength":12},{"buffer":0,"byteOffset":15712,"byteLength":4},{"buffer":0,"byteOffset":15716,"byteLength":12},{"buffer":0,"byteOffset":15728,"byteLength":4},{"buffer":0,"byteOffset":15732,"byteLength":12},{"buffer":0,"byteOffset":15744,"byteLength":12},{"buffer":0,"byteOffset":15756,"byteLength":36},{"buffer":0,"byteOffset":15792,"byteLength":12},{"buffer":0,"byteOffset":15804,"byteLength":36},{"buffer":0,"byteOffset":15840,"byteLength":12},{"buffer":0,"byteOffset":15852,"byteLength":36},{"buffer":0,"byteOffset":15888,"byteLength":12},{"buffer":0,"byteOffset":15900,"byteLength":36},{"buffer":0,"byteOffset":15936,"byteLength":4},{"buffer":0,"byteOffset":15940,"byteLength":12},{"buffer":0,"byteOffset":15952,"byteLength":4},{"buffer":0,"byteOffset":15956,"byteLength":12},{"buffer":0,"byteOffset":15968,"byteLength":4},{"buffer":0,"byteOffset":15972,"byteLength":12},{"buffer":0,"byteOffset":15984,"byteLength":4},{"buffer":0,"byteOffset":15988,"byteLength":12}],"buffers":[{"byteLength":16000,"uri":"data:application/octet-stream;base64,"}],"accessors":[{"bufferView":0,"componentType":5126,"count":24,"max":[0.03125,0.25,0.125],"min":[-0.03125,-0.25,-0.125],"type":"VEC3"},{"bufferView":1,"componentType":5126,"count":24,"max":[1,1,1],"min":[-1,-1,-1],"type":"VEC3"},{"bufferView":2,"componentType":5126,"count":24,"max":[1,1],"min":[0,0],"type":"VEC2"},{"bufferView":3,"componentType":5123,"count":36,"max":[23],"min":[0],"type":"SCALAR"},{"bufferView":4,"componentType":5126,"count":24,"max":[0.03125,0.25,0.125],"min":[-0.03125,-0.25,-0.125],"type":"VEC3"},{"bufferView":5,"componentType":5126,"count":24,"max":[1,1,1],"min":[-1,-1,-1],"type":"VEC3"},{"bufferView":6,"componentType":5126,"count":24,"max":[1,1],"min":[0,-0.015625],"type":"VEC2"},{"bufferView":7,"componentType":5123,"count":36,"max":[23],"min":[0],"type":"SCALAR"},{"bufferView":8,"componentType":5126,"count":24,"max":[0.0625,0.375,0.125],"min":[-0.0625,0.125,-0.125],"type":"VEC3"},{"bufferView":9,"componentType":5126,"count":24,"max":[1,1,1],"min":[-1,-1,-1],"type":"VEC3"},{"bufferView":10,"componentType":5126,"count":24,"max":[0.5,1],"min":[0,0.3125],"type":"VEC2"},{"bufferView":11,"componentType":5123,"count":36,"max":[23],"min":[0],"type":"SCALAR"},{"bufferView":12,"componentType":5126,"count":24,"max":[0.0625,0.375,0.125],"min":[-0.0625,0.125,-0.125],"type":"VEC3"},{"bufferView":13,"componentType":5126,"count":24,"max":[1,1,1],"min":[-1,-1,-1],"type":"VEC3"},{"bufferView":14,"componentType":5126,"count":24,"max":[0.5,1],"min":[0,0],"type":"VEC2"},{"bufferView":15,"componentType":5123,"count":36,"max":[23],"min":[0],"type":"SCALAR"},{"bufferView":16,"componentType":5126,"count":88,"max":[0.09375,0.15625,0.09375],"min":[-0.09375,-0.04374999925494194,-0.09375],"type":"VEC3"},{"bufferView":17,"componentType":5126,"count":88,"max":[1,1,1],"min":[-1,-1,-1],"type":"VEC3"},{"bufferView":18,"componentType":5126,"count":88,"max":[0.25,0.5],"min":[0,0],"type":"VEC2"},{"bufferView":19,"componentType":5123,"count":132,"max":[87],"min":[0],"type":"SCALAR"},{"bufferView":20,"componentType":5126,"count":88,"max":[0.09375,0.15625,0.09375],"min":[-0.09375,-0.04374999925494194,-0.09375],"type":"VEC3"},{"bufferView":21,"componentType":5126,"count":88,"max":[1,1,1],"min":[-1,-1,-1],"type":"VEC3"},{"bufferView":22,"componentType":5126,"count":88,"max":[0.25,0.25],"min":[0,0],"type":"VEC2"},{"bufferView":23,"componentType":5123,"count":132,"max":[87],"min":[0],"type":"SCALAR"},{"bufferView":24,"componentType":5126,"count":88,"max":[0.09375,0.15625,0.09375],"min":[-0.09375,-0.04374999925494194,-0.09375],"type":"VEC3"},{"bufferView":25,"componentType":5126,"count":88,"max":[1,1,1],"min":[-1,-1,-1],"type":"VEC3"},{"bufferView":26,"componentType":5126,"count":88,"max":[0.5,0.25],"min":[0,0],"type":"VEC2"},{"bufferView":27,"componentType":5123,"count":132,"max":[87],"min":[0],"type":"SCALAR"},{"bufferView":28,"componentType":5126,"count":88,"max":[0.09375,0.15625,0.09375],"min":[-0.09375,-0.04374999925494194,-0.09375],"type":"VEC3"},{"bufferView":29,"componentType":5126,"count":88,"max":[1,1,1],"min":[-1,-1,-1],"type":"VEC3"},{"bufferView":30,"componentType":5126,"count":88,"max":[0.5,0.5],"min":[0,0],"type":"VEC2"},{"bufferView":31,"componentType":5123,"count":132,"max":[87],"min":[0],"type":"SCALAR"},{"bufferView":32,"componentType":5126,"count":1,"max":[0],"min":[0],"type":"SCALAR"},{"bufferView":33,"componentType":5126,"count":1,"max":[0,0,0],"min":[0,0,0],"type":"VEC3"},{"bufferView":34,"componentType":5126,"count":1,"max":[0],"min":[0],"type":"SCALAR"},{"bufferView":35,"componentType":5126,"count":1,"max":[0,0,0],"min":[0,0,0],"type":"VEC3"},{"bufferView":36,"componentType":5126,"count":1,"max":[0],"min":[0],"type":"SCALAR"},{"bufferView":37,"componentType":5126,"count":1,"max":[0,-0.125,0],"min":[0,-0.125,0],"type":"VEC3"},{"bufferView":38,"componentType":5126,"count":1,"max":[0],"min":[0],"type":"SCALAR"},{"bufferView":39,"componentType":5126,"count":1,"max":[0,0.3125,0],"min":[0,0.3125,0],"type":"VEC3"},{"bufferView":40,"componentType":5126,"count":3,"max":[1],"min":[0],"type":"SCALAR"},{"bufferView":41,"componentType":5126,"count":3,"max":[0,0.625,0],"min":[0,0.3125,0],"type":"VEC3"},{"bufferView":42,"componentType":5126,"count":3,"max":[1],"min":[0],"type":"SCALAR"},{"bufferView":43,"componentType":5126,"count":3,"max":[0,0,0],"min":[0,0,-0.3125],"type":"VEC3"},{"bufferView":44,"componentType":5126,"count":3,"max":[1],"min":[0],"type":"SCALAR"},{"bufferView":45,"componentType":5126,"count":3,"max":[0,0,0.3125],"min":[0,0,0],"type":"VEC3"},{"bufferView":46,"componentType":5126,"count":3,"max":[1],"min":[0],"type":"SCALAR"},{"bufferView":47,"componentType":5126,"count":3,"max":[0,-0.125,0],"min":[0,-0.4375,0],"type":"VEC3"},{"bufferView":48,"componentType":5126,"count":1,"max":[0],"min":[0],"type":"SCALAR"},{"bufferView":49,"componentType":5126,"count":1,"max":[0,0.625,0],"min":[0,0.625,0],"type":"VEC3"},{"bufferView":50,"componentType":5126,"count":1,"max":[0],"min":[0],"type":"SCALAR"},{"bufferView":51,"componentType":5126,"count":1,"max":[0,0,-0.3125],"min":[0,0,-0.3125],"type":"VEC3"},{"bufferView":52,"componentType":5126,"count":1,"max":[0],"min":[0],"type":"SCALAR"},{"bufferView":53,"componentType":5126,"count":1,"max":[0,0,0.3125],"min":[0,0,0.3125],"type":"VEC3"},{"bufferView":54,"componentType":5126,"count":1,"max":[0],"min":[0],"type":"SCALAR"},{"bufferView":55,"componentType":5126,"count":1,"max":[0,-0.4375,0],"min":[0,-0.4375,0],"type":"VEC3"}],"materials":[{"pbrMetallicRoughness":{"metallicFactor":0,"roughnessFactor":1,"baseColorTexture":{"index":0}},"alphaMode":"MASK","alphaCutoff":0.05,"doubleSided":true},{"pbrMetallicRoughness":{"metallicFactor":0,"roughnessFactor":1,"baseColorTexture":{"index":1}},"alphaMode":"MASK","alphaCutoff":0.05,"doubleSided":true}],"textures":[{"sampler":0,"source":0,"name":"t_doors.png"},{"sampler":1,"source":1,"name":"t_door_screens.png"}],"samplers":[{"magFilter":9728,"minFilter":9728,"wrapS":33071,"wrapT":33071},{"magFilter":9728,"minFilter":9728,"wrapS":33071,"wrapT":33071}],"images":[{"mimeType":"image/png","uri":"data:image/png;base64,"},{"mimeType":"image/png","uri":"data:image/png;base64,"}],"meshes":[{"primitives":[{"mode":4,"attributes":{"POSITION":0,"NORMAL":1,"TEXCOORD_0":2},"indices":3,"material":0}]},{"primitives":[{"mode":4,"attributes":{"POSITION":4,"NORMAL":5,"TEXCOORD_0":6},"indices":7,"material":0}]},{"primitives":[{"mode":4,"attributes":{"POSITION":8,"NORMAL":9,"TEXCOORD_0":10},"indices":11,"material":0}]},{"primitives":[{"mode":4,"attributes":{"POSITION":12,"NORMAL":13,"TEXCOORD_0":14},"indices":15,"material":0}]},{"primitives":[{"mode":4,"attributes":{"POSITION":16,"NORMAL":17,"TEXCOORD_0":18},"indices":19,"material":1}]},{"primitives":[{"mode":4,"attributes":{"POSITION":20,"NORMAL":21,"TEXCOORD_0":22},"indices":23,"material":1}]},{"primitives":[{"mode":4,"attributes":{"POSITION":24,"NORMAL":25,"TEXCOORD_0":26},"indices":27,"material":1}]},{"primitives":[{"mode":4,"attributes":{"POSITION":28,"NORMAL":29,"TEXCOORD_0":30},"indices":31,"material":1}]}],"animations":[{"name":"door_close","samplers":[{"input":32,"output":33,"interpolation":"LINEAR"},{"input":34,"output":35,"interpolation":"LINEAR"},{"input":36,"output":37,"interpolation":"LINEAR"},{"input":38,"output":39,"interpolation":"LINEAR"}],"channels":[{"sampler":0,"target":{"node":1,"path":"translation"}},{"sampler":1,"target":{"node":3,"path":"translation"}},{"sampler":2,"target":{"node":5,"path":"translation"}},{"sampler":3,"target":{"node":11,"path":"translation"}}]},{"name":"door_opening","samplers":[{"input":40,"output":41,"interpolation":"LINEAR"},{"input":42,"output":43,"interpolation":"LINEAR"},{"input":44,"output":45,"interpolation":"LINEAR"},{"input":46,"output":47,"interpolation":"LINEAR"}],"channels":[{"sampler":0,"target":{"node":11,"path":"translation"}},{"sampler":1,"target":{"node":3,"path":"translation"}},{"sampler":2,"target":{"node":1,"path":"translation"}},{"sampler":3,"target":{"node":5,"path":"translation"}}]},{"name":"door_open","samplers":[{"input":48,"output":49,"interpolation":"LINEAR"},{"input":50,"output":51,"interpolation":"LINEAR"},{"input":52,"output":53,"interpolation":"LINEAR"},{"input":54,"output":55,"interpolation":"LINEAR"}],"channels":[{"sampler":0,"target":{"node":11,"path":"translation"}},{"sampler":1,"target":{"node":3,"path":"translation"}},{"sampler":2,"target":{"node":1,"path":"translation"}},{"sampler":3,"target":{"node":5,"path":"translation"}}]}]}