{"asset":{"version":"2.0","generator":"Blockbench 4.12.3 glTF exporter"},"scenes":[{"nodes":[4],"name":"blockbench_export"}],"scene":0,"nodes":[{"translation":[-6.943836136032519e-19,-0.044633756818834275,0.000017257067596157527],"name":"candleabra","mesh":0},{"name":"candle","mesh":1},{"translation":[4.420208857056287e-19,-0.0793749999999999,0.025493310999657036],"name":"cylinder","mesh":2},{"translation":[5.337610695313253e-19,0.0890625,-0.06874999999999995],"name":"bone","children":[0,1,2]},{"children":[3]}],"bufferViews":[{"buffer":0,"byteOffset":0,"byteLength":3720,"target":34962,"byteStride":12},{"buffer":0,"byteOffset":3720,"byteLength":3720,"target":34962,"byteStride":12},{"buffer":0,"byteOffset":7440,"byteLength":2480,"target":34962,"byteStride":8},{"buffer":0,"byteOffset":9920,"byteLength":900,"target":34963},{"buffer":0,"byteOffset":10820,"byteLength":1440,"target":34962,"byteStride":12},{"buffer":0,"byteOffset":12260,"byteLength":1440,"target":34962,"byteStride":12},{"buffer":0,"byteOffset":13700,"byteLength":960,"target":34962,"byteStride":8},{"buffer":0,"byteOffset":14660,"byteLength":288,"target":34963},{"buffer":0,"byteOffset":14948,"byteLength":4104,"target":34962,"byteStride":12},{"buffer":0,"byteOffset":19052,"byteLength":4104,"target":34962,"byteStride":12},{"buffer":0,"byteOffset":23156,"byteLength":2736,"target":34962,"byteStride":8},{"buffer":0,"byteOffset":25892,"byteLength":936,"target":34963}],"buffers":[{"byteLength":26828,"uri":"data:application/octet-stream;base64,"}],"accessors":[{"bufferView":0,"componentType":5126,"count":310,"max":[0.015322075225412846,0.016508756205439568,0.013483719900250435],"min":[-0.015322075225412846,-0.019428743049502373,-0.01351823378354311],"type":"VEC3"},{"bufferView":1,"componentType":5126,"count":310,"max":[0.9644898772239685,1,0.9874798655509949],"min":[-0.9644898772239685,-0.9474003911018372,-0.9874798655509949],"type":"VEC3"},{"bufferView":2,"componentType":5126,"count":310,"max":[0.5625,0.5625],"min":[0,0],"type":"VEC2"},{"bufferView":3,"componentType":5123,"count":450,"max":[309],"min":[0],"type":"SCALAR"},{"bufferView":4,"componentType":5126,"count":120,"max":[0.00937500037252903,0.02812499925494194,0.00937500037252903],"min":[-0.00937500037252903,-0.02812499925494194,-0.00937500037252903],"type":"VEC3"},{"bufferView":5,"componentType":5126,"count":120,"max":[1,1,1],"min":[-1,-1,-1],"type":"VEC3"},{"bufferView":6,"componentType":5126,"count":120,"max":[0.25,0.25468748807907104],"min":[0.0015312499599531293,0],"type":"VEC2"},{"bufferView":7,"componentType":5123,"count":144,"max":[119],"min":[0],"type":"SCALAR"},{"bufferView":8,"componentType":5126,"count":342,"max":[0.007858194410800934,0.019999999552965164,0.04325668886303902],"min":[-0.007858194410800934,-0.020625000819563866,-0.03486831113696098],"type":"VEC3"},{"bufferView":9,"componentType":5126,"count":342,"max":[0.9848441481590271,1,1],"min":[-0.9848441481590271,-1,-0.906183123588562],"type":"VEC3"},{"bufferView":10,"componentType":5126,"count":342,"max":[0.032856285572052,0.1875],"min":[0,0],"type":"VEC2"},{"bufferView":11,"componentType":5123,"count":468,"max":[341],"min":[0],"type":"SCALAR"}],"materials":[{"pbrMetallicRoughness":{"metallicFactor":0,"roughnessFactor":1,"baseColorTexture":{"index":0}},"alphaMode":"MASK","alphaCutoff":0.05,"doubleSided":true},{"pbrMetallicRoughness":{"metallicFactor":0,"roughnessFactor":1,"baseColorTexture":{"index":1}},"alphaMode":"MASK","alphaCutoff":0.05,"doubleSided":true}],"textures":[{"sampler":0,"source":0,"name":"texture.png"},{"sampler":1,"source":1,"name":"texture.png"}],"samplers":[{"magFilter":9728,"minFilter":9728,"wrapS":33071,"wrapT":33071},{"magFilter":9728,"minFilter":9728,"wrapS":33071,"wrapT":33071}],"images":[{"mimeType":"image/png","uri":"data:image/png;base64,"},{"mimeType":"image/png","uri":"data:image/png;base64,"}],"meshes":[{"primitives":[{"mode":4,"attributes":{"POSITION":0,"NORMAL":1,"TEXCOORD_0":2},"indices":3,"material":0}]},{"primitives":[{"mode":4,"attributes":{"POSITION":4,"NORMAL":5,"TEXCOORD_0":6},"indices":7,"material":1}]},{"primitives":[{"mode":4,"attributes":{"POSITION":8,"NORMAL":9,"TEXCOORD_0":10},"indices":11,"material":0}]}]}