{"asset":{"version":"2.0","generator":"Blockbench 4.12.4 glTF exporter"},"scenes":[{"nodes":[7],"name":"blockbench_export"}],"scene":0,"nodes":[{"translation":[0,0.25,0],"name":"cylinder","mesh":0},{"rotation":[-0.3193033403336317,-0.12256904908616895,0.5655211104745189,0.7504719039814643],"translation":[-0.125,1,-0.05],"name":"cylinder","mesh":1},{"rotation":[0.18721892265370266,-0.16973903287258066,-0.6671285093190946,0.7007690687905328],"translation":[0,1.25,0],"name":"cylinder","mesh":2},{"rotation":[0.6674770527395136,-0.6302062414415505,-0.27696911133529606,0.28390595041390576],"translation":[0,1.25,0],"name":"cylinder","mesh":3},{"translation":[-0.35,1.8,0.325],"name":"sphere","mesh":4},{"translation":[0.375,1.7,0.25],"name":"sphere","mesh":5},{"translation":[-0.4,1.525,-0.425],"name":"sphere","mesh":6},{"children":[0,1,2,3,4,5,6]}],"bufferViews":[{"buffer":0,"byteOffset":0,"byteLength":2880,"target":34962,"byteStride":12},{"buffer":0,"byteOffset":2880,"byteLength":2880,"target":34962,"byteStride":12},{"buffer":0,"byteOffset":5760,"byteLength":1920,"target":34962,"byteStride":8},{"buffer":0,"byteOffset":7680,"byteLength":672,"target":34963},{"buffer":0,"byteOffset":8352,"byteLength":2880,"target":34962,"byteStride":12},{"buffer":0,"byteOffset":11232,"byteLength":2880,"target":34962,"byteStride":12},{"buffer":0,"byteOffset":14112,"byteLength":1920,"target":34962,"byteStride":8},{"buffer":0,"byteOffset":16032,"byteLength":672,"target":34963},{"buffer":0,"byteOffset":16704,"byteLength":2880,"target":34962,"byteStride":12},{"buffer":0,"byteOffset":19584,"byteLength":2880,"target":34962,"byteStride":12},{"buffer":0,"byteOffset":22464,"byteLength":1920,"target":34962,"byteStride":8},{"buffer":0,"byteOffset":24384,"byteLength":672,"target":34963},{"buffer":0,"byteOffset":25056,"byteLength":2880,"target":34962,"byteStride":12},{"buffer":0,"byteOffset":27936,"byteLength":2880,"target":34962,"byteStride":12},{"buffer":0,"byteOffset":30816,"byteLength":1920,"target":34962,"byteStride":8},{"buffer":0,"byteOffset":32736,"byteLength":672,"target":34963},{"buffer":0,"byteOffset":33408,"byteLength":3168,"target":34962,"byteStride":12},{"buffer":0,"byteOffset":36576,"byteLength":3168,"target":34962,"byteStride":12},{"buffer":0,"byteOffset":39744,"byteLength":2112,"target":34962,"byteStride":8},{"buffer":0,"byteOffset":41856,"byteLength":720,"target":34963},{"buffer":0,"byteOffset":42576,"byteLength":3168,"target":34962,"byteStride":12},{"buffer":0,"byteOffset":45744,"byteLength":3168,"target":34962,"byteStride":12},{"buffer":0,"byteOffset":48912,"byteLength":2112,"target":34962,"byteStride":8},{"buffer":0,"byteOffset":51024,"byteLength":720,"target":34963},{"buffer":0,"byteOffset":51744,"byteLength":3168,"target":34962,"byteStride":12},{"buffer":0,"byteOffset":54912,"byteLength":3168,"target":34962,"byteStride":12},{"buffer":0,"byteOffset":58080,"byteLength":2112,"target":34962,"byteStride":8},{"buffer":0,"byteOffset":60192,"byteLength":720,"target":34963}],"buffers":[{"byteLength":60912,"uri":"data:application/octet-stream;base64,"}],"accessors":[{"bufferView":0,"componentType":5126,"count":240,"max":[0.30000001192092896,1.4469799995422363,0.25],"min":[-0.30000001192092896,-0.25,-0.25],"type":"VEC3"},{"bufferView":1,"componentType":5126,"count":240,"max":[0.9999070167541504,0.6000000238418579,1],"min":[-0.9987523555755615,-1,-1],"type":"VEC3"},{"bufferView":2,"componentType":5126,"count":240,"max":[0.903487503528595,0.876583456993103],"min":[0.00009062499884748831,0],"type":"VEC2"},{"bufferView":3,"componentType":5123,"count":336,"max":[239],"min":[0],"type":"SCALAR"},{"bufferView":4,"componentType":5126,"count":240,"max":[0.3646849989891052,0.5253375172615051,0.08124999701976776],"min":[-0.13124999403953552,-0.08124999701976776,-0.20753249526023865],"type":"VEC3"},{"bufferView":5,"componentType":5126,"count":240,"max":[0.9796678423881531,0.9750352501869202,1],"min":[-0.9796678423881531,-1,-1],"type":"VEC3"},{"bufferView":6,"componentType":5126,"count":240,"max":[0.8310684561729431,0.9818690419197083],"min":[0.00409437483176589,0.009784400463104248],"type":"VEC2"},{"bufferView":7,"componentType":5123,"count":336,"max":[239],"min":[0],"type":"SCALAR"},{"bufferView":8,"componentType":5126,"count":240,"max":[0.13124999403953552,0.4879874885082245,0.08124999701976776],"min":[-0.2982900142669678,0.06875000149011612,-0.08124999701976776],"type":"VEC3"},{"bufferView":9,"componentType":5126,"count":240,"max":[0.9990555047988892,0.9164004325866699,1],"min":[-0.9990555047988892,-1,-1],"type":"VEC3"},{"bufferView":10,"componentType":5126,"count":240,"max":[0.9371284246444702,0.9818690419197083],"min":[0.12133249640464783,0],"type":"VEC2"},{"bufferView":11,"componentType":5123,"count":336,"max":[239],"min":[0],"type":"SCALAR"},{"bufferView":12,"componentType":5126,"count":240,"max":[0.03125,0.4879874885082245,0.08124999701976776],"min":[-0.19829000532627106,0.06875000149011612,-0.08124999701976776],"type":"VEC3"},{"bufferView":13,"componentType":5126,"count":240,"max":[0.9997300505638123,0.7742764949798584,1],"min":[-0.9997291564941406,-1,-1],"type":"VEC3"},{"bufferView":14,"componentType":5126,"count":240,"max":[0.9371284246444702,0.9818690419197083],"min":[0.12133249640464783,0],"type":"VEC2"},{"bufferView":15,"componentType":5123,"count":336,"max":[239],"min":[0],"type":"SCALAR"},{"bufferView":16,"componentType":5126,"count":264,"max":[0.5,0.5,0.5],"min":[-0.5,-0.5,-0.5],"type":"VEC3"},{"bufferView":17,"componentType":5126,"count":264,"max":[0.9659256339073181,0.9659256339073181,0.9659256339073181],"min":[-0.9659256339073181,-0.9659256339073181,-0.9659256339073181],"type":"VEC3"},{"bufferView":18,"componentType":5126,"count":264,"max":[1.0039646625518799,0.9064815640449524],"min":[0.0016812500543892384,0],"type":"VEC2"},{"bufferView":19,"componentType":5123,"count":360,"max":[263],"min":[0],"type":"SCALAR"},{"bufferView":20,"componentType":5126,"count":264,"max":[0.3499999940395355,0.32499998807907104,0.3499999940395355],"min":[-0.3499999940395355,-0.32499998807907104,-0.3499999940395355],"type":"VEC3"},{"bufferView":21,"componentType":5126,"count":264,"max":[0.9607999920845032,0.9704127907752991,0.9607999920845032],"min":[-0.9607999920845032,-0.9704127907752991,-0.9607999920845032],"type":"VEC3"},{"bufferView":22,"componentType":5126,"count":264,"max":[1.0039646625518799,0.9064815640449524],"min":[0.0016812500543892384,0],"type":"VEC2"},{"bufferView":23,"componentType":5123,"count":360,"max":[263],"min":[0],"type":"SCALAR"},{"bufferView":24,"componentType":5126,"count":264,"max":[0.5,0.375,0.5],"min":[-0.5,-0.375,-0.5],"type":"VEC3"},{"bufferView":25,"componentType":5126,"count":264,"max":[0.9417049884796143,0.9803992509841919,0.9417049884796143],"min":[-0.9417049884796143,-0.9803992509841919,-0.9417049884796143],"type":"VEC3"},{"bufferView":26,"componentType":5126,"count":264,"max":[1.0039646625518799,0.9064815640449524],"min":[0.0016812500543892384,0],"type":"VEC2"},{"bufferView":27,"componentType":5123,"count":360,"max":[263],"min":[0],"type":"SCALAR"}],"materials":[{"pbrMetallicRoughness":{"metallicFactor":0,"roughnessFactor":1,"baseColorTexture":{"index":0}},"alphaMode":"MASK","alphaCutoff":0.05,"doubleSided":true},{"pbrMetallicRoughness":{"metallicFactor":0,"roughnessFactor":1,"baseColorTexture":{"index":1}},"alphaMode":"MASK","alphaCutoff":0.05,"doubleSided":true}],"textures":[{"sampler":0,"source":0,"name":"t_tree.png"},{"sampler":1,"source":1,"name":"t_leaves.png"}],"samplers":[{"magFilter":9728,"minFilter":9728,"wrapS":33071,"wrapT":33071},{"magFilter":9728,"minFilter":9728,"wrapS":33071,"wrapT":33071}],"images":[{"mimeType":"image/png","uri":"data:image/png;base64,"},{"mimeType":"image/png","uri":"data:image/png;base64,"}],"meshes":[{"primitives":[{"mode":4,"attributes":{"POSITION":0,"NORMAL":1,"TEXCOORD_0":2},"indices":3,"material":0}]},{"primitives":[{"mode":4,"attributes":{"POSITION":4,"NORMAL":5,"TEXCOORD_0":6},"indices":7,"material":0}]},{"primitives":[{"mode":4,"attributes":{"POSITION":8,"NORMAL":9,"TEXCOORD_0":10},"indices":11,"material":0}]},{"primitives":[{"mode":4,"attributes":{"POSITION":12,"NORMAL":13,"TEXCOORD_0":14},"indices":15,"material":0}]},{"primitives":[{"mode":4,"attributes":{"POSITION":16,"NORMAL":17,"TEXCOORD_0":18},"indices":19,"material":1}]},{"primitives":[{"mode":4,"attributes":{"POSITION":20,"NORMAL":21,"TEXCOORD_0":22},"indices":23,"material":1}]},{"primitives":[{"mode":4,"attributes":{"POSITION":24,"NORMAL":25,"TEXCOORD_0":26},"indices":27,"material":1}]}]}