{"asset":{"version":"2.0","generator":"Blockbench 4.12.3 glTF exporter"},"scenes":[{"nodes":[2],"name":"blockbench_export"}],"scene":0,"nodes":[{"name":"candleabra","mesh":0},{"translation":[0,-0.08750000000000002,0],"name":"candle","mesh":1},{"children":[0,1]}],"bufferViews":[{"buffer":0,"byteOffset":0,"byteLength":6480,"target":34962,"byteStride":12},{"buffer":0,"byteOffset":6480,"byteLength":6480,"target":34962,"byteStride":12},{"buffer":0,"byteOffset":12960,"byteLength":4320,"target":34962,"byteStride":8},{"buffer":0,"byteOffset":17280,"byteLength":1560,"target":34963},{"buffer":0,"byteOffset":18840,"byteLength":1440,"target":34962,"byteStride":12},{"buffer":0,"byteOffset":20280,"byteLength":1440,"target":34962,"byteStride":12},{"buffer":0,"byteOffset":21720,"byteLength":960,"target":34962,"byteStride":8},{"buffer":0,"byteOffset":22680,"byteLength":288,"target":34963}],"buffers":[{"byteLength":22968,"uri":"data:application/octet-stream;base64,"}],"accessors":[{"bufferView":0,"componentType":5126,"count":540,"max":[0.032858192920684814,0.11874999850988388,0.03125],"min":[-0.032858192920684814,0,-0.03125],"type":"VEC3"},{"bufferView":1,"componentType":5126,"count":540,"max":[0.9669824242591858,1,0.9922778606414795],"min":[-0.9669824242591858,-1,-0.9922778606414795],"type":"VEC3"},{"bufferView":2,"componentType":5126,"count":540,"max":[0.5625,0.5625],"min":[0,0],"type":"VEC2"},{"bufferView":3,"componentType":5123,"count":780,"max":[539],"min":[0],"type":"SCALAR"},{"bufferView":4,"componentType":5126,"count":120,"max":[0.015625,0.30937498807907104,0.015625],"min":[-0.015625,0.20624999701976776,-0.015625],"type":"VEC3"},{"bufferView":5,"componentType":5126,"count":120,"max":[1,1,1],"min":[-1,-1,-1],"type":"VEC3"},{"bufferView":6,"componentType":5126,"count":120,"max":[1,1.0187499523162842],"min":[0.006124999839812517,0],"type":"VEC2"},{"bufferView":7,"componentType":5123,"count":144,"max":[119],"min":[0],"type":"SCALAR"}],"materials":[{"pbrMetallicRoughness":{"metallicFactor":0,"roughnessFactor":1,"baseColorTexture":{"index":0}},"alphaMode":"MASK","alphaCutoff":0.05,"doubleSided":true},{"pbrMetallicRoughness":{"metallicFactor":0,"roughnessFactor":1,"baseColorTexture":{"index":1}},"alphaMode":"MASK","alphaCutoff":0.05,"doubleSided":true}],"textures":[{"sampler":0,"source":0,"name":"texture"},{"sampler":1,"source":1,"name":"texture"}],"samplers":[{"magFilter":9728,"minFilter":9728,"wrapS":33071,"wrapT":33071},{"magFilter":9728,"minFilter":9728,"wrapS":33071,"wrapT":33071}],"images":[{"mimeType":"image/png","uri":"data:image/png;base64,"},{"mimeType":"image/png","uri":"data:image/png;base64,"}],"meshes":[{"primitives":[{"mode":4,"attributes":{"POSITION":0,"NORMAL":1,"TEXCOORD_0":2},"indices":3,"material":0}]},{"primitives":[{"mode":4,"attributes":{"POSITION":4,"NORMAL":5,"TEXCOORD_0":6},"indices":7,"material":1}]}]}