{"asset":{"version":"2.0","generator":"Blockbench 4.12.2 glTF exporter"},"scenes":[{"nodes":[8],"name":"blockbench_export"}],"scene":0,"nodes":[{"translation":[0,0.375,0],"name":"cuboid","mesh":0},{"translation":[0,0.3812500000000002,0],"name":"cylinder","mesh":1},{"translation":[0,0.0625,0],"name":"cylinder","mesh":2},{"translation":[0,0.09374999999999997,0],"name":"cylinder","mesh":3},{"translation":[0,0.08125000000000002,0],"name":"cuboid","mesh":4},{"translation":[0,0.5062499999999999,0],"name":"cylinder","mesh":5},{"translation":[0,0.5406249999999999,0],"name":"cylinder","mesh":6},{"translation":[0,0.4593750000000002,0],"name":"cylinder","mesh":7},{"children":[0,1,2,3,4,5,6,7]}],"bufferViews":[{"buffer":0,"byteOffset":0,"byteLength":288,"target":34962,"byteStride":12},{"buffer":0,"byteOffset":288,"byteLength":288,"target":34962,"byteStride":12},{"buffer":0,"byteOffset":576,"byteLength":192,"target":34962,"byteStride":8},{"buffer":0,"byteOffset":768,"byteLength":72,"target":34963},{"buffer":0,"byteOffset":840,"byteLength":720,"target":34962,"byteStride":12},{"buffer":0,"byteOffset":1560,"byteLength":720,"target":34962,"byteStride":12},{"buffer":0,"byteOffset":2280,"byteLength":480,"target":34962,"byteStride":8},{"buffer":0,"byteOffset":2760,"byteLength":144,"target":34963},{"buffer":0,"byteOffset":2904,"byteLength":1296,"target":34962,"byteStride":12},{"buffer":0,"byteOffset":4200,"byteLength":1296,"target":34962,"byteStride":12},{"buffer":0,"byteOffset":5496,"byteLength":864,"target":34962,"byteStride":8},{"buffer":0,"byteOffset":6360,"byteLength":288,"target":34963},{"buffer":0,"byteOffset":6648,"byteLength":720,"target":34962,"byteStride":12},{"buffer":0,"byteOffset":7368,"byteLength":720,"target":34962,"byteStride":12},{"buffer":0,"byteOffset":8088,"byteLength":480,"target":34962,"byteStride":8},{"buffer":0,"byteOffset":8568,"byteLength":144,"target":34963},{"buffer":0,"byteOffset":8712,"byteLength":288,"target":34962,"byteStride":12},{"buffer":0,"byteOffset":9000,"byteLength":288,"target":34962,"byteStride":12},{"buffer":0,"byteOffset":9288,"byteLength":192,"target":34962,"byteStride":8},{"buffer":0,"byteOffset":9480,"byteLength":72,"target":34963},{"buffer":0,"byteOffset":9552,"byteLength":720,"target":34962,"byteStride":12},{"buffer":0,"byteOffset":10272,"byteLength":720,"target":34962,"byteStride":12},{"buffer":0,"byteOffset":10992,"byteLength":480,"target":34962,"byteStride":8},{"buffer":0,"byteOffset":11472,"byteLength":144,"target":34963},{"buffer":0,"byteOffset":11616,"byteLength":720,"target":34962,"byteStride":12},{"buffer":0,"byteOffset":12336,"byteLength":720,"target":34962,"byteStride":12},{"buffer":0,"byteOffset":13056,"byteLength":480,"target":34962,"byteStride":8},{"buffer":0,"byteOffset":13536,"byteLength":144,"target":34963},{"buffer":0,"byteOffset":13680,"byteLength":720,"target":34962,"byteStride":12},{"buffer":0,"byteOffset":14400,"byteLength":720,"target":34962,"byteStride":12},{"buffer":0,"byteOffset":15120,"byteLength":480,"target":34962,"byteStride":8},{"buffer":0,"byteOffset":15600,"byteLength":144,"target":34963}],"buffers":[{"byteLength":15744,"uri":"data:application/octet-stream;base64,"}],"accessors":[{"bufferView":0,"componentType":5126,"count":24,"max":[0.012500000186264515,0.00937500037252903,0.012500000186264515],"min":[-0.012500000186264515,0,-0.012500000186264515],"type":"VEC3"},{"bufferView":1,"componentType":5126,"count":24,"max":[1,1,1],"min":[-1,-1,-1],"type":"VEC3"},{"bufferView":2,"componentType":5126,"count":24,"max":[0.25,0.25],"min":[0,0],"type":"VEC2"},{"bufferView":3,"componentType":5123,"count":36,"max":[23],"min":[0],"type":"SCALAR"},{"bufferView":4,"componentType":5126,"count":60,"max":[0.04545939341187477,0.0625,0.04062499850988388],"min":[-0.04545939341187477,0,-0.04062499850988388],"type":"VEC3"},{"bufferView":5,"componentType":5126,"count":60,"max":[0.792517900466919,1,0.9418838620185852],"min":[-0.792517900466919,-1,-0.9418838620185852],"type":"VEC3"},{"bufferView":6,"componentType":5126,"count":60,"max":[1,1.015625],"min":[0,0],"type":"VEC2"},{"bufferView":7,"componentType":5123,"count":72,"max":[59],"min":[0],"type":"SCALAR"},{"bufferView":8,"componentType":5126,"count":108,"max":[0.03920939192175865,0.01875000074505806,0.03505208343267441],"min":[-0.03920939192175865,-0.0625,-0.03505208343267441],"type":"VEC3"},{"bufferView":9,"componentType":5126,"count":108,"max":[0.8740345239639282,1,0.9997103214263916],"min":[-0.8740345239639282,-1,-0.9997103214263916],"type":"VEC3"},{"bufferView":10,"componentType":5126,"count":108,"max":[0.36335626244544983,0.5],"min":[0,0.037737488746643066],"type":"VEC2"},{"bufferView":11,"componentType":5123,"count":144,"max":[107],"min":[0],"type":"SCALAR"},{"bufferView":12,"componentType":5126,"count":60,"max":[0.011084391735494137,0.28125,0.00937500037252903],"min":[-0.011084391735494137,-0.012500000186264515,-0.00937500037252903],"type":"VEC3"},{"bufferView":13,"componentType":5126,"count":60,"max":[0.8607929944992065,1,0.9999434351921082],"min":[-0.8607929944992065,-1,-0.9999434351921082],"type":"VEC3"},{"bufferView":14,"componentType":5126,"count":60,"max":[0.03608750179409981,0.1875],"min":[0,0],"type":"VEC2"},{"bufferView":15,"componentType":5123,"count":72,"max":[59],"min":[0],"type":"SCALAR"},{"bufferView":16,"componentType":5126,"count":24,"max":[0.012500000186264515,0.00937500037252903,0.012500000186264515],"min":[-0.012500000186264515,0,-0.012500000186264515],"type":"VEC3"},{"bufferView":17,"componentType":5126,"count":24,"max":[1,1,1],"min":[-1,-1,-1],"type":"VEC3"},{"bufferView":18,"componentType":5126,"count":24,"max":[0.25,0.25],"min":[0,0],"type":"VEC2"},{"bufferView":19,"componentType":5123,"count":36,"max":[23],"min":[0],"type":"SCALAR"},{"bufferView":20,"componentType":5126,"count":60,"max":[0.04545939341187477,-0.04062499850988388,0.04062499850988388],"min":[-0.04545939341187477,-0.0625,-0.04062499850988388],"type":"VEC3"},{"bufferView":21,"componentType":5126,"count":60,"max":[0.6585567593574524,1,0.7004048228263855],"min":[-0.6585567593574524,-1,-0.7004048228263855],"type":"VEC3"},{"bufferView":22,"componentType":5126,"count":60,"max":[0.03608750179409981,0.0625],"min":[0,0],"type":"VEC2"},{"bufferView":23,"componentType":5123,"count":72,"max":[59],"min":[0],"type":"SCALAR"},{"bufferView":24,"componentType":5126,"count":60,"max":[0.02358439192175865,-0.05624999850988388,0.01875000074505806],"min":[-0.02358439192175865,-0.0625,-0.01875000074505806],"type":"VEC3"},{"bufferView":25,"componentType":5126,"count":60,"max":[0.48203688859939575,1,0.5191865563392639],"min":[-0.48203688859939575,-1,-0.5191865563392639],"type":"VEC3"},{"bufferView":26,"componentType":5126,"count":60,"max":[0.03608750179409981,0.0625],"min":[0,0],"type":"VEC2"},{"bufferView":27,"componentType":5123,"count":72,"max":[59],"min":[0],"type":"SCALAR"},{"bufferView":28,"componentType":5126,"count":60,"max":[0.02358439192175865,0.01875000074505806,0.01875000074505806],"min":[-0.02358439192175865,0,-0.01875000074505806],"type":"VEC3"},{"bufferView":29,"componentType":5126,"count":60,"max":[0.7216418981552124,1,0.8766900897026062],"min":[-0.7216418981552124,-1,-0.8766900897026062],"type":"VEC3"},{"bufferView":30,"componentType":5126,"count":60,"max":[0.03608750179409981,0.0625],"min":[0,0],"type":"VEC2"},{"bufferView":31,"componentType":5123,"count":72,"max":[59],"min":[0],"type":"SCALAR"}],"materials":[{"pbrMetallicRoughness":{"metallicFactor":0,"roughnessFactor":1,"baseColorTexture":{"index":0}},"alphaMode":"MASK","alphaCutoff":0.05,"doubleSided":true},{"pbrMetallicRoughness":{"metallicFactor":0,"roughnessFactor":1,"baseColorTexture":{"index":1}},"alphaMode":"MASK","alphaCutoff":0.05,"doubleSided":true}],"textures":[{"sampler":0,"source":0,"name":"texture"},{"sampler":1,"source":1,"name":"texture"}],"samplers":[{"magFilter":9728,"minFilter":9728,"wrapS":33071,"wrapT":33071},{"magFilter":9728,"minFilter":9728,"wrapS":33071,"wrapT":33071}],"images":[{"mimeType":"image/png","uri":"data:image/png;base64,"},{"mimeType":"image/png","uri":"data:image/png;base64,"}],"meshes":[{"primitives":[{"mode":4,"attributes":{"POSITION":0,"NORMAL":1,"TEXCOORD_0":2},"indices":3,"material":0}]},{"primitives":[{"mode":4,"attributes":{"POSITION":4,"NORMAL":5,"TEXCOORD_0":6},"indices":7,"material":1}]},{"primitives":[{"mode":4,"attributes":{"POSITION":8,"NORMAL":9,"TEXCOORD_0":10},"indices":11,"material":0}]},{"primitives":[{"mode":4,"attributes":{"POSITION":12,"NORMAL":13,"TEXCOORD_0":14},"indices":15,"material":0}]},{"primitives":[{"mode":4,"attributes":{"POSITION":16,"NORMAL":17,"TEXCOORD_0":18},"indices":19,"material":0}]},{"primitives":[{"mode":4,"attributes":{"POSITION":20,"NORMAL":21,"TEXCOORD_0":22},"indices":23,"material":0}]},{"primitives":[{"mode":4,"attributes":{"POSITION":24,"NORMAL":25,"TEXCOORD_0":26},"indices":27,"material":0}]},{"primitives":[{"mode":4,"attributes":{"POSITION":28,"NORMAL":29,"TEXCOORD_0":30},"indices":31,"material":0}]}]}