{"asset":{"version":"2.0","generator":"Blockbench 4.12.2 glTF exporter"},"scenes":[{"nodes":[5],"name":"blockbench_export"}],"scene":0,"nodes":[{"translation":[0,0.0625,0.07499999999999996],"name":"cuboid","mesh":0},{"translation":[0,0,0.12499999999999992],"name":"cuboid","mesh":1},{"translation":[0,-0.15000000000000002,-0.018750000000000027],"name":"cuboid","mesh":2},{"translation":[0,-0.03125,-1.0408340855860843e-17],"name":"cuboid","mesh":3},{"rotation":[0.7071067811865475,0,0,0.7071067811865476],"translation":[-1.3492293702041833e-18,0.04375,-0.14687499999999998],"name":"cylinder","mesh":4},{"children":[0,1,2,3,4]}],"bufferViews":[{"buffer":0,"byteOffset":0,"byteLength":3312,"target":34962,"byteStride":12},{"buffer":0,"byteOffset":3312,"byteLength":3312,"target":34962,"byteStride":12},{"buffer":0,"byteOffset":6624,"byteLength":2208,"target":34962,"byteStride":8},{"buffer":0,"byteOffset":8832,"byteLength":828,"target":34963},{"buffer":0,"byteOffset":9660,"byteLength":1056,"target":34962,"byteStride":12},{"buffer":0,"byteOffset":10716,"byteLength":1056,"target":34962,"byteStride":12},{"buffer":0,"byteOffset":11772,"byteLength":704,"target":34962,"byteStride":8},{"buffer":0,"byteOffset":12476,"byteLength":264,"target":34963},{"buffer":0,"byteOffset":12740,"byteLength":672,"target":34962,"byteStride":12},{"buffer":0,"byteOffset":13412,"byteLength":672,"target":34962,"byteStride":12},{"buffer":0,"byteOffset":14084,"byteLength":448,"target":34962,"byteStride":8},{"buffer":0,"byteOffset":14532,"byteLength":168,"target":34963},{"buffer":0,"byteOffset":14700,"byteLength":480,"target":34962,"byteStride":12},{"buffer":0,"byteOffset":15180,"byteLength":480,"target":34962,"byteStride":12},{"buffer":0,"byteOffset":15660,"byteLength":320,"target":34962,"byteStride":8},{"buffer":0,"byteOffset":15980,"byteLength":120,"target":34963},{"buffer":0,"byteOffset":16100,"byteLength":960,"target":34962,"byteStride":12},{"buffer":0,"byteOffset":17060,"byteLength":960,"target":34962,"byteStride":12},{"buffer":0,"byteOffset":18020,"byteLength":640,"target":34962,"byteStride":8},{"buffer":0,"byteOffset":18660,"byteLength":192,"target":34963}],"buffers":[{"byteLength":18852,"uri":"data:application/octet-stream;base64,"}],"accessors":[{"bufferView":0,"componentType":5126,"count":276,"max":[0.02500000037252903,0.012500000186264515,0.012500000186264515],"min":[-0.02500000037252903,-0.10000000149011612,-0.21875],"type":"VEC3"},{"bufferView":1,"componentType":5126,"count":276,"max":[1,1,1],"min":[-1,-1,-1],"type":"VEC3"},{"bufferView":2,"componentType":5126,"count":276,"max":[0.9468749761581421,1.015625],"min":[0.10249810665845871,0],"type":"VEC2"},{"bufferView":3,"componentType":5123,"count":414,"max":[275],"min":[0],"type":"SCALAR"},{"bufferView":4,"componentType":5126,"count":88,"max":[0.01875000074505806,0,-0.06875000149011612],"min":[-0.01875000074505806,-0.125,-0.11874999850988388],"type":"VEC3"},{"bufferView":5,"componentType":5126,"count":88,"max":[1,1,1],"min":[-1,-1,-1],"type":"VEC3"},{"bufferView":6,"componentType":5126,"count":88,"max":[1.024999976158142,1.03125],"min":[0.11749491840600967,0.0625],"type":"VEC2"},{"bufferView":7,"componentType":5123,"count":132,"max":[87],"min":[0],"type":"SCALAR"},{"bufferView":8,"componentType":5126,"count":56,"max":[0.0062500000931322575,0.11874999850988388,0.03125],"min":[-0.0062500000931322575,0.05000000074505806,-0.125],"type":"VEC3"},{"bufferView":9,"componentType":5126,"count":56,"max":[1,1,1],"min":[-1,-1,-0.6689647436141968],"type":"VEC3"},{"bufferView":10,"componentType":5126,"count":56,"max":[0.34698647260665894,0.7912654876708984],"min":[0.2594960629940033,0.7704246044158936],"type":"VEC2"},{"bufferView":11,"componentType":5123,"count":84,"max":[55],"min":[0],"type":"SCALAR"},{"bufferView":12,"componentType":5126,"count":40,"max":[0.0062500000931322575,0.05000000074505806,0.0015625000232830644],"min":[-0.0062500000931322575,-0.0062500000931322575,-0.0078125],"type":"VEC3"},{"bufferView":13,"componentType":5126,"count":40,"max":[1,1,1],"min":[-1,-1,-1],"type":"VEC3"},{"bufferView":14,"componentType":5126,"count":40,"max":[0.13750000298023224,0.29374998807907104],"min":[0.0625,0.125],"type":"VEC2"},{"bufferView":15,"componentType":5123,"count":60,"max":[39],"min":[0],"type":"SCALAR"},{"bufferView":16,"componentType":5126,"count":80,"max":[0.015625,0.015625,0.015625],"min":[-0.015625,-0.015625,-0.015625],"type":"VEC3"},{"bufferView":17,"componentType":5126,"count":80,"max":[1,1,1],"min":[-1,-1,-1],"type":"VEC3"},{"bufferView":18,"componentType":5126,"count":80,"max":[0.8294134736061096,0.96875],"min":[0,0],"type":"VEC2"},{"bufferView":19,"componentType":5123,"count":96,"max":[79],"min":[0],"type":"SCALAR"}],"materials":[{"pbrMetallicRoughness":{"metallicFactor":0,"roughnessFactor":1,"baseColorTexture":{"index":0}},"alphaMode":"MASK","alphaCutoff":0.05,"doubleSided":true}],"textures":[{"sampler":0,"source":0,"name":"9mm_pistol.png"}],"samplers":[{"magFilter":9728,"minFilter":9728,"wrapS":33071,"wrapT":33071}],"images":[{"mimeType":"image/png","uri":"data:image/png;base64,"}],"meshes":[{"primitives":[{"mode":4,"attributes":{"POSITION":0,"NORMAL":1,"TEXCOORD_0":2},"indices":3,"material":0}]},{"primitives":[{"mode":4,"attributes":{"POSITION":4,"NORMAL":5,"TEXCOORD_0":6},"indices":7,"material":0}]},{"primitives":[{"mode":4,"attributes":{"POSITION":8,"NORMAL":9,"TEXCOORD_0":10},"indices":11,"material":0}]},{"primitives":[{"mode":4,"attributes":{"POSITION":12,"NORMAL":13,"TEXCOORD_0":14},"indices":15,"material":0}]},{"primitives":[{"mode":4,"attributes":{"POSITION":16,"NORMAL":17,"TEXCOORD_0":18},"indices":19,"material":0}]}]}