{"asset":{"version":"2.0","generator":"Blockbench 4.11.2 glTF exporter"},"scenes":[{"nodes":[13],"name":"blockbench_export"}],"scene":0,"nodes":[{"translation":[0,-0.025,0.025],"name":"cuboid","mesh":0},{"rotation":[0.7071067811865475,0,0,0.7071067811865476],"translation":[0,0.09375,-0.225],"name":"cylinder","mesh":1},{"translation":[0,0.04375,-0.20625],"name":"cuboid","mesh":2},{"translation":[0,0,0.02500000000000001],"name":"beveled_cuboid","mesh":3},{"translation":[-0.025,0.10625000000000001,-0.11249999999999999],"name":"cuboid","mesh":4},{"translation":[-0.025,0.10625000000000001,-0.13749999999999998],"name":"cuboid","mesh":5},{"translation":[-0.025,0.10625000000000001,-0.16249999999999998],"name":"cuboid","mesh":6},{"translation":[0.025,0.10625000000000001,-0.11249999999999999],"name":"cuboid","mesh":7},{"translation":[0.025,0.10625000000000001,-0.13749999999999998],"name":"cuboid","mesh":8},{"translation":[0.025,0.10625000000000001,-0.16249999999999998],"name":"cuboid","mesh":9},{"translation":[0,-0.025,0.025],"name":"top","children":[2,3,4,5,6,7,8,9]},{"translation":[0,-0.025,0.025],"name":"firing_loc"},{"name":"base","children":[0,1,10,11]},{"children":[12]}],"bufferViews":[{"buffer":0,"byteOffset":0,"byteLength":1248,"target":34962,"byteStride":12},{"buffer":0,"byteOffset":1248,"byteLength":1248,"target":34962,"byteStride":12},{"buffer":0,"byteOffset":2496,"byteLength":832,"target":34962,"byteStride":8},{"buffer":0,"byteOffset":3328,"byteLength":312,"target":34963},{"buffer":0,"byteOffset":3640,"byteLength":720,"target":34962,"byteStride":12},{"buffer":0,"byteOffset":4360,"byteLength":720,"target":34962,"byteStride":12},{"buffer":0,"byteOffset":5080,"byteLength":480,"target":34962,"byteStride":8},{"buffer":0,"byteOffset":5560,"byteLength":144,"target":34963},{"buffer":0,"byteOffset":5704,"byteLength":2304,"target":34962,"byteStride":12},{"buffer":0,"byteOffset":8008,"byteLength":2304,"target":34962,"byteStride":12},{"buffer":0,"byteOffset":10312,"byteLength":1536,"target":34962,"byteStride":8},{"buffer":0,"byteOffset":11848,"byteLength":576,"target":34963},{"buffer":0,"byteOffset":12424,"byteLength":1152,"target":34962,"byteStride":12},{"buffer":0,"byteOffset":13576,"byteLength":1152,"target":34962,"byteStride":12},{"buffer":0,"byteOffset":14728,"byteLength":768,"target":34962,"byteStride":8},{"buffer":0,"byteOffset":15496,"byteLength":264,"target":34963},{"buffer":0,"byteOffset":15760,"byteLength":480,"target":34962,"byteStride":12},{"buffer":0,"byteOffset":16240,"byteLength":480,"target":34962,"byteStride":12},{"buffer":0,"byteOffset":16720,"byteLength":320,"target":34962,"byteStride":8},{"buffer":0,"byteOffset":17040,"byteLength":120,"target":34963},{"buffer":0,"byteOffset":17160,"byteLength":480,"target":34962,"byteStride":12},{"buffer":0,"byteOffset":17640,"byteLength":480,"target":34962,"byteStride":12},{"buffer":0,"byteOffset":18120,"byteLength":320,"target":34962,"byteStride":8},{"buffer":0,"byteOffset":18440,"byteLength":120,"target":34963},{"buffer":0,"byteOffset":18560,"byteLength":480,"target":34962,"byteStride":12},{"buffer":0,"byteOffset":19040,"byteLength":480,"target":34962,"byteStride":12},{"buffer":0,"byteOffset":19520,"byteLength":320,"target":34962,"byteStride":8},{"buffer":0,"byteOffset":19840,"byteLength":120,"target":34963},{"buffer":0,"byteOffset":19960,"byteLength":480,"target":34962,"byteStride":12},{"buffer":0,"byteOffset":20440,"byteLength":480,"target":34962,"byteStride":12},{"buffer":0,"byteOffset":20920,"byteLength":320,"target":34962,"byteStride":8},{"buffer":0,"byteOffset":21240,"byteLength":120,"target":34963},{"buffer":0,"byteOffset":21360,"byteLength":480,"target":34962,"byteStride":12},{"buffer":0,"byteOffset":21840,"byteLength":480,"target":34962,"byteStride":12},{"buffer":0,"byteOffset":22320,"byteLength":320,"target":34962,"byteStride":8},{"buffer":0,"byteOffset":22640,"byteLength":120,"target":34963},{"buffer":0,"byteOffset":22760,"byteLength":480,"target":34962,"byteStride":12},{"buffer":0,"byteOffset":23240,"byteLength":480,"target":34962,"byteStride":12},{"buffer":0,"byteOffset":23720,"byteLength":320,"target":34962,"byteStride":8},{"buffer":0,"byteOffset":24040,"byteLength":120,"target":34963}],"buffers":[{"byteLength":24160,"uri":"data:application/octet-stream;base64,"}],"accessors":[{"bufferView":0,"componentType":5126,"count":104,"max":[0.02500000037252903,0.11249999701976776,0.05000000074505806],"min":[-0.02500000037252903,-0.0625,-0.17499999701976776],"type":"VEC3"},{"bufferView":1,"componentType":5126,"count":104,"max":[1,1,0.9805806875228882],"min":[-1,-1,-0.9805806875228882],"type":"VEC3"},{"bufferView":2,"componentType":5126,"count":104,"max":[0.653124988079071,1],"min":[0,0],"type":"VEC2"},{"bufferView":3,"componentType":5123,"count":156,"max":[103],"min":[0],"type":"SCALAR"},{"bufferView":4,"componentType":5126,"count":60,"max":[0.022617513313889503,0.125,0.02500000037252903],"min":[-0.022617513313889503,-0.012500000186264515,-0.02500000037252903],"type":"VEC3"},{"bufferView":5,"componentType":5126,"count":60,"max":[0.9111184477806091,1,1],"min":[-0.9111184477806091,-1,-1],"type":"VEC3"},{"bufferView":6,"componentType":5126,"count":60,"max":[0.25,0.125],"min":[0,0],"type":"VEC2"},{"bufferView":7,"componentType":5123,"count":72,"max":[59],"min":[0],"type":"SCALAR"},{"bufferView":8,"componentType":5126,"count":192,"max":[0.03750000149011612,0.11874999850988388,0.21875],"min":[-0.03750000149011612,0.03125,-0.0062500000931322575],"type":"VEC3"},{"bufferView":9,"componentType":5126,"count":192,"max":[0.986393928527832,1,1],"min":[-0.9932857751846313,-1,-0.9284766912460327],"type":"VEC3"},{"bufferView":10,"componentType":5126,"count":192,"max":[0.9500291347503662,0.9722493886947632],"min":[0.13437500596046448,0],"type":"VEC2"},{"bufferView":11,"componentType":5123,"count":288,"max":[191],"min":[0],"type":"SCALAR"},{"bufferView":12,"componentType":5126,"count":96,"max":[0.012500000186264515,0.15625,0.03125],"min":[-0.012500000186264515,0.09375,-0.08124999701976776],"type":"VEC3"},{"bufferView":13,"componentType":5126,"count":96,"max":[1,1,1],"min":[-1,-1,-1],"type":"VEC3"},{"bufferView":14,"componentType":5126,"count":96,"max":[0.2092984914779663,0.07501304149627686],"min":[0.1706494241952896,0.048993587493896484],"type":"VEC2"},{"bufferView":15,"componentType":5123,"count":132,"max":[95],"min":[0],"type":"SCALAR"},{"bufferView":16,"componentType":5126,"count":40,"max":[0.012500000186264515,0.03750000149011612,0.0062500000931322575],"min":[-0.012500000186264515,-0.012500000186264515,-0.0062500000931322575],"type":"VEC3"},{"bufferView":17,"componentType":5126,"count":40,"max":[1,1,1],"min":[-0.9701424837112427,-1,-1],"type":"VEC3"},{"bufferView":18,"componentType":5126,"count":40,"max":[0.19727981090545654,0.0761878490447998],"min":[0.18769560754299164,0.050000011920928955],"type":"VEC2"},{"bufferView":19,"componentType":5123,"count":60,"max":[39],"min":[0],"type":"SCALAR"},{"bufferView":20,"componentType":5126,"count":40,"max":[0.012500000186264515,0.03750000149011612,0.0062500000931322575],"min":[-0.012500000186264515,-0.012500000186264515,-0.0062500000931322575],"type":"VEC3"},{"bufferView":21,"componentType":5126,"count":40,"max":[1,1,1],"min":[-0.9701424837112427,-1,-1],"type":"VEC3"},{"bufferView":22,"componentType":5126,"count":40,"max":[0.186990424990654,0.07614749670028687],"min":[0.17705269157886505,0.050000011920928955],"type":"VEC2"},{"bufferView":23,"componentType":5123,"count":60,"max":[39],"min":[0],"type":"SCALAR"},{"bufferView":24,"componentType":5126,"count":40,"max":[0.012500000186264515,0.03750000149011612,0.0062500000931322575],"min":[-0.012500000186264515,-0.012500000186264515,-0.0062500000931322575],"type":"VEC3"},{"bufferView":25,"componentType":5126,"count":40,"max":[1,1,1],"min":[-0.9701424837112427,-1,-1],"type":"VEC3"},{"bufferView":26,"componentType":5126,"count":40,"max":[0.17704543471336365,0.07618725299835205],"min":[0.16645005345344543,0.050000011920928955],"type":"VEC2"},{"bufferView":27,"componentType":5123,"count":60,"max":[39],"min":[0],"type":"SCALAR"},{"bufferView":28,"componentType":5126,"count":40,"max":[0.012500000186264515,0.03750000149011612,0.0062500000931322575],"min":[-0.012500000186264515,-0.012500000186264515,-0.0062500000931322575],"type":"VEC3"},{"bufferView":29,"componentType":5126,"count":40,"max":[0.9701424837112427,1,1],"min":[-1,-1,-1],"type":"VEC3"},{"bufferView":30,"componentType":5126,"count":40,"max":[0.19727981090545654,0.0761878490447998],"min":[0.18769560754299164,0.050000011920928955],"type":"VEC2"},{"bufferView":31,"componentType":5123,"count":60,"max":[39],"min":[0],"type":"SCALAR"},{"bufferView":32,"componentType":5126,"count":40,"max":[0.012500000186264515,0.03750000149011612,0.0062500000931322575],"min":[-0.012500000186264515,-0.012500000186264515,-0.0062500000931322575],"type":"VEC3"},{"bufferView":33,"componentType":5126,"count":40,"max":[0.9701424837112427,1,1],"min":[-1,-1,-1],"type":"VEC3"},{"bufferView":34,"componentType":5126,"count":40,"max":[0.186990424990654,0.07614749670028687],"min":[0.17705269157886505,0.050000011920928955],"type":"VEC2"},{"bufferView":35,"componentType":5123,"count":60,"max":[39],"min":[0],"type":"SCALAR"},{"bufferView":36,"componentType":5126,"count":40,"max":[0.012500000186264515,0.03750000149011612,0.0062500000931322575],"min":[-0.012500000186264515,-0.012500000186264515,-0.0062500000931322575],"type":"VEC3"},{"bufferView":37,"componentType":5126,"count":40,"max":[0.9701424837112427,1,1],"min":[-1,-1,-1],"type":"VEC3"},{"bufferView":38,"componentType":5126,"count":40,"max":[0.17704543471336365,0.07618725299835205],"min":[0.16645005345344543,0.050000011920928955],"type":"VEC2"},{"bufferView":39,"componentType":5123,"count":60,"max":[39],"min":[0],"type":"SCALAR"}],"materials":[{"pbrMetallicRoughness":{"metallicFactor":0,"roughnessFactor":1,"baseColorTexture":{"index":0}},"alphaMode":"MASK","alphaCutoff":0.05,"doubleSided":true}],"textures":[{"sampler":0,"source":0,"name":"t_laser_pistol.png"}],"samplers":[{"magFilter":9728,"minFilter":9728,"wrapS":33071,"wrapT":33071}],"images":[{"mimeType":"image/png","uri":"data:image/png;base64,"}],"meshes":[{"primitives":[{"mode":4,"attributes":{"POSITION":0,"NORMAL":1,"TEXCOORD_0":2},"indices":3,"material":0}]},{"primitives":[{"mode":4,"attributes":{"POSITION":4,"NORMAL":5,"TEXCOORD_0":6},"indices":7,"material":0}]},{"primitives":[{"mode":4,"attributes":{"POSITION":8,"NORMAL":9,"TEXCOORD_0":10},"indices":11,"material":0}]},{"primitives":[{"mode":4,"attributes":{"POSITION":12,"NORMAL":13,"TEXCOORD_0":14},"indices":15,"material":0}]},{"primitives":[{"mode":4,"attributes":{"POSITION":16,"NORMAL":17,"TEXCOORD_0":18},"indices":19,"material":0}]},{"primitives":[{"mode":4,"attributes":{"POSITION":20,"NORMAL":21,"TEXCOORD_0":22},"indices":23,"material":0}]},{"primitives":[{"mode":4,"attributes":{"POSITION":24,"NORMAL":25,"TEXCOORD_0":26},"indices":27,"material":0}]},{"primitives":[{"mode":4,"attributes":{"POSITION":28,"NORMAL":29,"TEXCOORD_0":30},"indices":31,"material":0}]},{"primitives":[{"mode":4,"attributes":{"POSITION":32,"NORMAL":33,"TEXCOORD_0":34},"indices":35,"material":0}]},{"primitives":[{"mode":4,"attributes":{"POSITION":36,"NORMAL":37,"TEXCOORD_0":38},"indices":39,"material":0}]}]}