{"asset":{"version":"2.0","generator":"Blockbench 4.11.2 glTF exporter"},"scenes":[{"nodes":[7],"name":"blockbench_export"}],"scene":0,"nodes":[{"translation":[0,0.05,-0.6000000000000001],"name":"firing_loc"},{"translation":[0,-0.05,0.03125],"name":"cuboid","mesh":0},{"translation":[0,-0.08125000000000002,-0.031249999999999986],"name":"cuboid","mesh":1},{"translation":[0,-0.018749999999999992,-0.03749999999999998],"name":"cuboid","mesh":2},{"translation":[0,0.049999999999999975,-0.29375000000000007],"name":"barrel","mesh":3},{"translation":[0,0,-0.27500000000000013],"name":"cuboid","mesh":4},{"name":"rifle","children":[0,1,2,3,4,5]},{"children":[6]}],"bufferViews":[{"buffer":0,"byteOffset":0,"byteLength":1056,"target":34962,"byteStride":12},{"buffer":0,"byteOffset":1056,"byteLength":1056,"target":34962,"byteStride":12},{"buffer":0,"byteOffset":2112,"byteLength":704,"target":34962,"byteStride":8},{"buffer":0,"byteOffset":2816,"byteLength":264,"target":34963},{"buffer":0,"byteOffset":3080,"byteLength":480,"target":34962,"byteStride":12},{"buffer":0,"byteOffset":3560,"byteLength":480,"target":34962,"byteStride":12},{"buffer":0,"byteOffset":4040,"byteLength":320,"target":34962,"byteStride":8},{"buffer":0,"byteOffset":4360,"byteLength":120,"target":34963},{"buffer":0,"byteOffset":4480,"byteLength":1872,"target":34962,"byteStride":12},{"buffer":0,"byteOffset":6352,"byteLength":1872,"target":34962,"byteStride":12},{"buffer":0,"byteOffset":8224,"byteLength":1248,"target":34962,"byteStride":8},{"buffer":0,"byteOffset":9472,"byteLength":456,"target":34963},{"buffer":0,"byteOffset":9928,"byteLength":1536,"target":34962,"byteStride":12},{"buffer":0,"byteOffset":11464,"byteLength":1536,"target":34962,"byteStride":12},{"buffer":0,"byteOffset":13000,"byteLength":1024,"target":34962,"byteStride":8},{"buffer":0,"byteOffset":14024,"byteLength":360,"target":34963},{"buffer":0,"byteOffset":14384,"byteLength":480,"target":34962,"byteStride":12},{"buffer":0,"byteOffset":14864,"byteLength":480,"target":34962,"byteStride":12},{"buffer":0,"byteOffset":15344,"byteLength":320,"target":34962,"byteStride":8},{"buffer":0,"byteOffset":15664,"byteLength":120,"target":34963}],"buffers":[{"byteLength":15784,"uri":"data:application/octet-stream;base64,"}],"accessors":[{"bufferView":0,"componentType":5126,"count":88,"max":[0.01875000074505806,0.08749999850988388,0.20000000298023224],"min":[-0.01875000074505806,-0.0625,-0.4749999940395355],"type":"VEC3"},{"bufferView":1,"componentType":5126,"count":88,"max":[1,1,1],"min":[-1,-1,-0.8357054591178894],"type":"VEC3"},{"bufferView":2,"componentType":5126,"count":88,"max":[0.28437501192092896,0.42285627126693726],"min":[0,0],"type":"VEC2"},{"bufferView":3,"componentType":5123,"count":132,"max":[87],"min":[0],"type":"SCALAR"},{"bufferView":4,"componentType":5126,"count":40,"max":[0.0062500000931322575,0.10625000298023224,0.0625],"min":[-0.0062500000931322575,0.05624999850988388,-0.04374999925494194],"type":"VEC3"},{"bufferView":5,"componentType":5126,"count":40,"max":[1,0.9701424837112427,1],"min":[-1,-0.9701424837112427,-1],"type":"VEC3"},{"bufferView":6,"componentType":5126,"count":40,"max":[1,0.15346884727478027],"min":[0.7867587804794312,0.07328534126281738],"type":"VEC2"},{"bufferView":7,"componentType":5123,"count":60,"max":[39],"min":[0],"type":"SCALAR"},{"bufferView":8,"componentType":5126,"count":156,"max":[0.01875000074505806,0.08749999850988388,0.05624999850988388],"min":[-0.01875000074505806,0.05624999850988388,-0.41874998807907104],"type":"VEC3"},{"bufferView":9,"componentType":5126,"count":156,"max":[1,1,1],"min":[-1,-1,-1],"type":"VEC3"},{"bufferView":10,"componentType":5126,"count":156,"max":[0.9899231195449829,0.10491180419921875],"min":[0.623886227607727,0.08200562000274658],"type":"VEC2"},{"bufferView":11,"componentType":5123,"count":228,"max":[155],"min":[0],"type":"SCALAR"},{"bufferView":12,"componentType":5126,"count":128,"max":[0.012500000186264515,0.03092082403600216,0.30000001192092896],"min":[-0.012500000186264515,-0.01875000074505806,-0.30000001192092896],"type":"VEC3"},{"bufferView":13,"componentType":5126,"count":128,"max":[0.9532033205032349,0.9480489492416382,1],"min":[-0.9532033205032349,-0.9480489492416382,-1],"type":"VEC3"},{"bufferView":14,"componentType":5126,"count":128,"max":[1,1],"min":[0.746874988079071,0],"type":"VEC2"},{"bufferView":15,"componentType":5123,"count":180,"max":[127],"min":[0],"type":"SCALAR"},{"bufferView":16,"componentType":5126,"count":40,"max":[0.01875000074505806,0.0625,0.18125000596046448],"min":[-0.01875000074505806,0.05000000074505806,-0.18125000596046448],"type":"VEC3"},{"bufferView":17,"componentType":5126,"count":40,"max":[1,1,1],"min":[-1,-1,-1],"type":"VEC3"},{"bufferView":18,"componentType":5126,"count":40,"max":[0.03125,0.09062498807907104],"min":[0,0],"type":"VEC2"},{"bufferView":19,"componentType":5123,"count":60,"max":[39],"min":[0],"type":"SCALAR"}],"materials":[{"pbrMetallicRoughness":{"metallicFactor":0,"roughnessFactor":1,"baseColorTexture":{"index":0}},"alphaMode":"MASK","alphaCutoff":0.05,"doubleSided":true}],"textures":[{"sampler":0,"source":0,"name":"t_rifle.png"}],"samplers":[{"magFilter":9728,"minFilter":9728,"wrapS":33071,"wrapT":33071}],"images":[{"mimeType":"image/png","uri":"data:image/png;base64,"}],"meshes":[{"primitives":[{"mode":4,"attributes":{"POSITION":0,"NORMAL":1,"TEXCOORD_0":2},"indices":3,"material":0}]},{"primitives":[{"mode":4,"attributes":{"POSITION":4,"NORMAL":5,"TEXCOORD_0":6},"indices":7,"material":0}]},{"primitives":[{"mode":4,"attributes":{"POSITION":8,"NORMAL":9,"TEXCOORD_0":10},"indices":11,"material":0}]},{"primitives":[{"mode":4,"attributes":{"POSITION":12,"NORMAL":13,"TEXCOORD_0":14},"indices":15,"material":0}]},{"primitives":[{"mode":4,"attributes":{"POSITION":16,"NORMAL":17,"TEXCOORD_0":18},"indices":19,"material":0}]}]}