{"asset":{"version":"2.0","generator":"Blockbench 4.12.3 glTF exporter"},"scenes":[{"nodes":[17],"name":"blockbench_export"}],"scene":0,"nodes":[{"translation":[0,-0.024999999999999988,-0.012499999999999857],"name":"cuboid","mesh":0},{"rotation":[0.7071067811865475,0,0,0.7071067811865476],"translation":[0,-0.0062499999999999865,1.3704315460216776e-16],"name":"cuboid","mesh":1},{"translation":[2.0408511482080083e-19,0.0050686752075013355,0.005776913027792775],"name":"cuboid","mesh":2},{"rotation":[0,0,0.7071067811865475,0.7071067811865476],"translation":[0,0.012500000000000002,-0.08750000000000002],"name":"cylinder","mesh":3},{"rotation":[0,0,0.7071067811865475,0.7071067811865476],"translation":[0,0.04375,-0.006250000000000021],"name":"SCREW","mesh":4},{"rotation":[0,0,0.7071067811865475,0.7071067811865476],"translation":[0,0.018750000000000003,0.03124999999999998],"name":"SCREW","mesh":5},{"rotation":[0,0,0.7071067811865475,0.7071067811865476],"translation":[0,-0.04375,0.049999999999999975],"name":"SCREW","mesh":6},{"rotation":[0,0,0.7071067811865475,0.7071067811865476],"translation":[0,0.014062499999999999,-2.42861286636753e-17],"name":"SCREW","mesh":7},{"translation":[0,0.05624999999999998,-0.05624999999999995],"name":"cuboid","mesh":8},{"rotation":[0.7071067811865475,0,0,0.7071067811865476],"translation":[-3.903127820947816e-18,0.03932787749866451,-0.08750000000000009],"name":"cylinder","mesh":9},{"translation":[0,0.024999999999999998,-0.024999999999999953],"name":"cuboid","mesh":10},{"rotation":[-0.7071067811865475,0,0,0.7071067811865476],"translation":[-5.421010862427522e-18,-0.057101094681132884,0.01249999999999988],"name":"cylinder","mesh":11},{"translation":[0,0.07500000000000002,0.02500000000000009],"name":"ammo_barrel","children":[11]},{"translation":[0,0.0125,-0.08750000000000001],"name":"barrel","children":[8,9,10,12]},{"rotation":[-0.7071067811865475,0,0,0.7071067811865476],"translation":[0,0.056249999999999925,1.3704315460216776e-16],"name":"cuboid","mesh":12},{"name":"hammer","children":[14]},{"name":"gun","children":[0,1,2,3,4,5,6,7,13,15]},{"children":[16]}],"bufferViews":[{"buffer":0,"byteOffset":0,"byteLength":1056,"target":34962,"byteStride":12},{"buffer":0,"byteOffset":1056,"byteLength":1056,"target":34962,"byteStride":12},{"buffer":0,"byteOffset":2112,"byteLength":704,"target":34962,"byteStride":8},{"buffer":0,"byteOffset":2816,"byteLength":264,"target":34963},{"buffer":0,"byteOffset":3080,"byteLength":672,"target":34962,"byteStride":12},{"buffer":0,"byteOffset":3752,"byteLength":672,"target":34962,"byteStride":12},{"buffer":0,"byteOffset":4424,"byteLength":448,"target":34962,"byteStride":8},{"buffer":0,"byteOffset":4872,"byteLength":168,"target":34963},{"buffer":0,"byteOffset":5040,"byteLength":3072,"target":34962,"byteStride":12},{"buffer":0,"byteOffset":8112,"byteLength":3072,"target":34962,"byteStride":12},{"buffer":0,"byteOffset":11184,"byteLength":2048,"target":34962,"byteStride":8},{"buffer":0,"byteOffset":13232,"byteLength":768,"target":34963},{"buffer":0,"byteOffset":14000,"byteLength":960,"target":34962,"byteStride":12},{"buffer":0,"byteOffset":14960,"byteLength":960,"target":34962,"byteStride":12},{"buffer":0,"byteOffset":15920,"byteLength":640,"target":34962,"byteStride":8},{"buffer":0,"byteOffset":16560,"byteLength":192,"target":34963},{"buffer":0,"byteOffset":16752,"byteLength":960,"target":34962,"byteStride":12},{"buffer":0,"byteOffset":17712,"byteLength":960,"target":34962,"byteStride":12},{"buffer":0,"byteOffset":18672,"byteLength":640,"target":34962,"byteStride":8},{"buffer":0,"byteOffset":19312,"byteLength":192,"target":34963},{"buffer":0,"byteOffset":19504,"byteLength":960,"target":34962,"byteStride":12},{"buffer":0,"byteOffset":20464,"byteLength":960,"target":34962,"byteStride":12},{"buffer":0,"byteOffset":21424,"byteLength":640,"target":34962,"byteStride":8},{"buffer":0,"byteOffset":22064,"byteLength":192,"target":34963},{"buffer":0,"byteOffset":22256,"byteLength":960,"target":34962,"byteStride":12},{"buffer":0,"byteOffset":23216,"byteLength":960,"target":34962,"byteStride":12},{"buffer":0,"byteOffset":24176,"byteLength":640,"target":34962,"byteStride":8},{"buffer":0,"byteOffset":24816,"byteLength":192,"target":34963},{"buffer":0,"byteOffset":25008,"byteLength":960,"target":34962,"byteStride":12},{"buffer":0,"byteOffset":25968,"byteLength":960,"target":34962,"byteStride":12},{"buffer":0,"byteOffset":26928,"byteLength":640,"target":34962,"byteStride":8},{"buffer":0,"byteOffset":27568,"byteLength":192,"target":34963},{"buffer":0,"byteOffset":27760,"byteLength":672,"target":34962,"byteStride":12},{"buffer":0,"byteOffset":28432,"byteLength":672,"target":34962,"byteStride":12},{"buffer":0,"byteOffset":29104,"byteLength":448,"target":34962,"byteStride":8},{"buffer":0,"byteOffset":29552,"byteLength":168,"target":34963},{"buffer":0,"byteOffset":29720,"byteLength":840,"target":34962,"byteStride":12},{"buffer":0,"byteOffset":30560,"byteLength":840,"target":34962,"byteStride":12},{"buffer":0,"byteOffset":31400,"byteLength":560,"target":34962,"byteStride":8},{"buffer":0,"byteOffset":31960,"byteLength":168,"target":34963},{"buffer":0,"byteOffset":32128,"byteLength":480,"target":34962,"byteStride":12},{"buffer":0,"byteOffset":32608,"byteLength":480,"target":34962,"byteStride":12},{"buffer":0,"byteOffset":33088,"byteLength":320,"target":34962,"byteStride":8},{"buffer":0,"byteOffset":33408,"byteLength":120,"target":34963},{"buffer":0,"byteOffset":33528,"byteLength":840,"target":34962,"byteStride":12},{"buffer":0,"byteOffset":34368,"byteLength":840,"target":34962,"byteStride":12},{"buffer":0,"byteOffset":35208,"byteLength":560,"target":34962,"byteStride":8},{"buffer":0,"byteOffset":35768,"byteLength":168,"target":34963},{"buffer":0,"byteOffset":35936,"byteLength":864,"target":34962,"byteStride":12},{"buffer":0,"byteOffset":36800,"byteLength":864,"target":34962,"byteStride":12},{"buffer":0,"byteOffset":37664,"byteLength":576,"target":34962,"byteStride":8},{"buffer":0,"byteOffset":38240,"byteLength":216,"target":34963},{"buffer":0,"byteOffset":38456,"byteLength":20},{"buffer":0,"byteOffset":38476,"byteLength":80},{"buffer":0,"byteOffset":38556,"byteLength":16},{"buffer":0,"byteOffset":38572,"byteLength":64},{"buffer":0,"byteOffset":38636,"byteLength":64},{"buffer":0,"byteOffset":38700,"byteLength":256},{"buffer":0,"byteOffset":38956,"byteLength":4},{"buffer":0,"byteOffset":38960,"byteLength":16}],"buffers":[{"byteLength":38976,"uri":"data:application/octet-stream;base64,"}],"accessors":[{"bufferView":0,"componentType":5126,"count":88,"max":[0.004687500186264515,0.02500000037252903,0.03437500074505806],"min":[-0.004687500186264515,-0.0031250000465661287,-0.02187499962747097],"type":"VEC3"},{"bufferView":1,"componentType":5126,"count":88,"max":[1,1,1],"min":[-1,-1,-1],"type":"VEC3"},{"bufferView":2,"componentType":5126,"count":88,"max":[0.9357088208198547,0.8674536943435669],"min":[0.8790014982223511,0.8254573345184326],"type":"VEC2"},{"bufferView":3,"componentType":5123,"count":132,"max":[87],"min":[0],"type":"SCALAR"},{"bufferView":4,"componentType":5126,"count":56,"max":[0.004687500186264515,0.0062500000931322575,0.00937500037252903],"min":[-0.004687500186264515,-0.0031250000465661287,-0.0062500000931322575],"type":"VEC3"},{"bufferView":5,"componentType":5126,"count":56,"max":[1,0.936329185962677,1],"min":[-1,-0.936329185962677,-1],"type":"VEC3"},{"bufferView":6,"componentType":5126,"count":56,"max":[0.9453125,0.8724914789199829],"min":[0.8515625,0.7797256112098694],"type":"VEC2"},{"bufferView":7,"componentType":5123,"count":84,"max":[55],"min":[0],"type":"SCALAR"},{"bufferView":8,"componentType":5126,"count":256,"max":[0.017500000074505806,0.05743132531642914,0.0752783715724945],"min":[-0.017500000074505806,-0.08536570519208908,-0.09327691048383713],"type":"VEC3"},{"bufferView":9,"componentType":5126,"count":256,"max":[1,1,0.9823381900787354],"min":[-1,-1,-1],"type":"VEC3"},{"bufferView":10,"componentType":5126,"count":256,"max":[0.9281864166259766,0.8380757570266724],"min":[0.5214949250221252,0],"type":"VEC2"},{"bufferView":11,"componentType":5123,"count":384,"max":[255],"min":[0],"type":"SCALAR"},{"bufferView":12,"componentType":5126,"count":80,"max":[0.012500000186264515,0.01406249962747097,0.012500000186264515],"min":[-0.012500000186264515,-0.01406249962747097,-0.012500000186264515],"type":"VEC3"},{"bufferView":13,"componentType":5126,"count":80,"max":[1,1,1],"min":[-1,-1,-1],"type":"VEC3"},{"bufferView":14,"componentType":5126,"count":80,"max":[0.535799503326416,0.22051650285720825],"min":[0.028354588896036148,0.03125],"type":"VEC2"},{"bufferView":15,"componentType":5123,"count":96,"max":[79],"min":[0],"type":"SCALAR"},{"bufferView":16,"componentType":5126,"count":80,"max":[0.0062500000931322575,0.02031249925494194,0.0062500000931322575],"min":[-0.0062500000931322575,-0.02031249925494194,-0.0062500000931322575],"type":"VEC3"},{"bufferView":17,"componentType":5126,"count":80,"max":[1,1,1],"min":[-1,-1,-1],"type":"VEC3"},{"bufferView":18,"componentType":5126,"count":80,"max":[0.48954999446868896,0.25],"min":[0.125,0.015625],"type":"VEC2"},{"bufferView":19,"componentType":5123,"count":96,"max":[79],"min":[0],"type":"SCALAR"},{"bufferView":20,"componentType":5126,"count":80,"max":[0.0062500000931322575,0.02031249925494194,0.0062500000931322575],"min":[-0.0062500000931322575,-0.02031249925494194,-0.0062500000931322575],"type":"VEC3"},{"bufferView":21,"componentType":5126,"count":80,"max":[1,1,1],"min":[-1,-1,-1],"type":"VEC3"},{"bufferView":22,"componentType":5126,"count":80,"max":[0.48954999446868896,0.25],"min":[0.125,0.015625],"type":"VEC2"},{"bufferView":23,"componentType":5123,"count":96,"max":[79],"min":[0],"type":"SCALAR"},{"bufferView":24,"componentType":5126,"count":80,"max":[0.0062500000931322575,0.015625,0.0062500000931322575],"min":[-0.0062500000931322575,-0.015625,-0.0062500000931322575],"type":"VEC3"},{"bufferView":25,"componentType":5126,"count":80,"max":[1,1,1],"min":[-1,-1,-1],"type":"VEC3"},{"bufferView":26,"componentType":5126,"count":80,"max":[0.48954999446868896,0.25],"min":[0.125,0.015625],"type":"VEC2"},{"bufferView":27,"componentType":5123,"count":96,"max":[79],"min":[0],"type":"SCALAR"},{"bufferView":28,"componentType":5126,"count":80,"max":[0.0062500000931322575,0.02031249925494194,0.0062500000931322575],"min":[-0.0062500000931322575,-0.02031249925494194,-0.0062500000931322575],"type":"VEC3"},{"bufferView":29,"componentType":5126,"count":80,"max":[1,1,1],"min":[-1,-1,-1],"type":"VEC3"},{"bufferView":30,"componentType":5126,"count":80,"max":[0.48954999446868896,0.25],"min":[0.125,0.015625],"type":"VEC2"},{"bufferView":31,"componentType":5123,"count":96,"max":[79],"min":[0],"type":"SCALAR"},{"bufferView":32,"componentType":5126,"count":56,"max":[0.0062500000931322575,0.012500000186264515,0.14374999701976776],"min":[-0.0062500000931322575,-0.0062500000931322575,-0.125],"type":"VEC3"},{"bufferView":33,"componentType":5126,"count":56,"max":[1,1,1],"min":[-1,-1,-1],"type":"VEC3"},{"bufferView":34,"componentType":5126,"count":56,"max":[0.9430258870124817,0.8986280560493469],"min":[0.8515625,0.7888719439506531],"type":"VEC2"},{"bufferView":35,"componentType":5123,"count":84,"max":[55],"min":[0],"type":"SCALAR"},{"bufferView":36,"componentType":5126,"count":70,"max":[0.012500000186264515,0.09375,0.0118488110601902],"min":[-0.012500000186264515,-0.09375,-0.013151188381016254],"type":"VEC3"},{"bufferView":37,"componentType":5126,"count":70,"max":[0.9761252999305725,1,1],"min":[-0.9761252999305725,-1,-0.8965831398963928],"type":"VEC3"},{"bufferView":38,"componentType":5126,"count":70,"max":[0.9197027683258057,0.8657011985778809],"min":[0.375,0],"type":"VEC2"},{"bufferView":39,"componentType":5123,"count":84,"max":[69],"min":[0],"type":"SCALAR"},{"bufferView":40,"componentType":5126,"count":40,"max":[0.0062500000931322575,0.02187499962747097,0.03125],"min":[-0.0062500000931322575,-0.01875000074505806,-0.05624999850988388],"type":"VEC3"},{"bufferView":41,"componentType":5126,"count":40,"max":[1,1,1],"min":[-1,-1,-1],"type":"VEC3"},{"bufferView":42,"componentType":5126,"count":40,"max":[0.949999988079071,0.9125000238418579],"min":[0.8972942233085632,0.7980182766914368],"type":"VEC2"},{"bufferView":43,"componentType":5123,"count":60,"max":[39],"min":[0],"type":"SCALAR"},{"bufferView":44,"componentType":5126,"count":70,"max":[0.03125,0.03125,0.02962202951312065],"min":[-0.03125,-0.03125,-0.03287797048687935],"type":"VEC3"},{"bufferView":45,"componentType":5126,"count":70,"max":[0.9761252999305725,1,1],"min":[-0.9761252999305725,-1,-0.8965831398963928],"type":"VEC3"},{"bufferView":46,"componentType":5126,"count":70,"max":[0.375,0.125],"min":[0,0],"type":"VEC2"},{"bufferView":47,"componentType":5123,"count":84,"max":[69],"min":[0],"type":"SCALAR"},{"bufferView":48,"componentType":5126,"count":72,"max":[0.004687500186264515,0.004687500186264515,0.02187499962747097],"min":[-0.004687500186264515,-0.02070312574505806,-0.008333333767950535],"type":"VEC3"},{"bufferView":49,"componentType":5126,"count":72,"max":[1,0.9897582530975342,1],"min":[-1,-0.9897582530975342,-1],"type":"VEC3"},{"bufferView":50,"componentType":5126,"count":72,"max":[0.9468749761581421,0.8745173811912537],"min":[0.8611661791801453,0.75],"type":"VEC2"},{"bufferView":51,"componentType":5123,"count":108,"max":[71],"min":[0],"type":"SCALAR"},{"bufferView":52,"componentType":5126,"count":5,"max":[1],"min":[0],"type":"SCALAR"},{"bufferView":53,"componentType":5126,"count":5,"max":[0,0,0,1],"min":[-1,0,0,-1],"type":"VEC4"},{"bufferView":54,"componentType":5126,"count":4,"max":[1],"min":[0],"type":"SCALAR"},{"bufferView":55,"componentType":5126,"count":4,"max":[0,0,0,1],"min":[-0.44228869676589966,0,0,0.8968727588653564],"type":"VEC4"},{"bufferView":56,"componentType":5126,"count":16,"max":[1],"min":[0],"type":"SCALAR"},{"bufferView":57,"componentType":5126,"count":16,"max":[0.258819043636322,0,0,1],"min":[0,0,0,0.9659258127212524],"type":"VEC4"},{"bufferView":58,"componentType":5126,"count":1,"max":[0],"min":[0],"type":"SCALAR"},{"bufferView":59,"componentType":5126,"count":1,"max":[0,0,0,1],"min":[0,0,0,1],"type":"VEC4"}],"materials":[{"pbrMetallicRoughness":{"metallicFactor":0,"roughnessFactor":1,"baseColorTexture":{"index":0}},"alphaMode":"MASK","alphaCutoff":0.05,"doubleSided":true}],"textures":[{"sampler":0,"source":0,"name":"t_revolver"}],"samplers":[{"magFilter":9728,"minFilter":9728,"wrapS":33071,"wrapT":33071}],"images":[{"mimeType":"image/png","uri":"data:image/png;base64,"}],"meshes":[{"primitives":[{"mode":4,"attributes":{"POSITION":0,"NORMAL":1,"TEXCOORD_0":2},"indices":3,"material":0}]},{"primitives":[{"mode":4,"attributes":{"POSITION":4,"NORMAL":5,"TEXCOORD_0":6},"indices":7,"material":0}]},{"primitives":[{"mode":4,"attributes":{"POSITION":8,"NORMAL":9,"TEXCOORD_0":10},"indices":11,"material":0}]},{"primitives":[{"mode":4,"attributes":{"POSITION":12,"NORMAL":13,"TEXCOORD_0":14},"indices":15,"material":0}]},{"primitives":[{"mode":4,"attributes":{"POSITION":16,"NORMAL":17,"TEXCOORD_0":18},"indices":19,"material":0}]},{"primitives":[{"mode":4,"attributes":{"POSITION":20,"NORMAL":21,"TEXCOORD_0":22},"indices":23,"material":0}]},{"primitives":[{"mode":4,"attributes":{"POSITION":24,"NORMAL":25,"TEXCOORD_0":26},"indices":27,"material":0}]},{"primitives":[{"mode":4,"attributes":{"POSITION":28,"NORMAL":29,"TEXCOORD_0":30},"indices":31,"material":0}]},{"primitives":[{"mode":4,"attributes":{"POSITION":32,"NORMAL":33,"TEXCOORD_0":34},"indices":35,"material":0}]},{"primitives":[{"mode":4,"attributes":{"POSITION":36,"NORMAL":37,"TEXCOORD_0":38},"indices":39,"material":0}]},{"primitives":[{"mode":4,"attributes":{"POSITION":40,"NORMAL":41,"TEXCOORD_0":42},"indices":43,"material":0}]},{"primitives":[{"mode":4,"attributes":{"POSITION":44,"NORMAL":45,"TEXCOORD_0":46},"indices":47,"material":0}]},{"primitives":[{"mode":4,"attributes":{"POSITION":48,"NORMAL":49,"TEXCOORD_0":50},"indices":51,"material":0}]}],"animations":[{"name":"spin","samplers":[{"input":52,"output":53,"interpolation":"LINEAR"}],"channels":[{"sampler":0,"target":{"node":16,"path":"rotation"}}]},{"name":"reload","samplers":[{"input":54,"output":55,"interpolation":"LINEAR"}],"channels":[{"sampler":0,"target":{"node":13,"path":"rotation"}}]},{"name":"fire","samplers":[{"input":56,"output":57,"interpolation":"LINEAR"}],"channels":[{"sampler":0,"target":{"node":15,"path":"rotation"}}]},{"name":"idle","samplers":[{"input":58,"output":59,"interpolation":"LINEAR"}],"channels":[{"sampler":0,"target":{"node":13,"path":"rotation"}}]}]}